<?xml version="1.0" encoding="UTF-8" standalone="no"?>
<!-- Created with Inkscape (http://www.inkscape.org/) -->

<svg
   width="32mm"
   height="32mm"
   viewBox="0 0 32 32"
   version="1.1"
   id="svg5"
   xml:space="preserve"
   inkscape:version="1.2.2 (b0a8486541, 2022-12-01)"
   sodipodi:docname="Bat.svg"
   xmlns:inkscape="http://www.inkscape.org/namespaces/inkscape"
   xmlns:sodipodi="http://sodipodi.sourceforge.net/DTD/sodipodi-0.dtd"
   xmlns="http://www.w3.org/2000/svg"
   xmlns:svg="http://www.w3.org/2000/svg"><sodipodi:namedview
     id="namedview7"
     pagecolor="#ffffff"
     bordercolor="#000000"
     borderopacity="0.25"
     inkscape:showpageshadow="2"
     inkscape:pageopacity="0.0"
     inkscape:pagecheckerboard="0"
     inkscape:deskcolor="#d1d1d1"
     inkscape:document-units="mm"
     showgrid="false"
     inkscape:zoom="8.516629"
     inkscape:cx="63.287951"
     inkscape:cy="55.303572"
     inkscape:window-width="1920"
     inkscape:window-height="1024"
     inkscape:window-x="0"
     inkscape:window-y="29"
     inkscape:window-maximized="1"
     inkscape:current-layer="layer9" /><defs
     id="defs2" /><g
     inkscape:groupmode="layer"
     id="layer9"
     inkscape:label="Wings"
     transform="matrix(1.0454763,0,0,1.15101,-0.71962577,-1.688539)"><g
       inkscape:groupmode="layer"
       id="layer2"
       inkscape:label="RightWing"><path
         style="fill:#000000;stroke:#000000;stroke-width:0.113879;stroke-miterlimit:10"
         d="m 21.779263,2.8344865 c 4.947314,1.964292 9.656138,8.7566975 8.416521,14.9809795 -0.270742,-3.352796 -5.941932,-4.849583 -6.581683,-0.864708 -1.045297,-3.8668 -5.002425,-1.399073 -5.046316,2.328475 -0.782122,-2.952361 -2.956004,-3.427608 -3.997926,-0.235412 0.752437,-2.504479 1.266979,-5.202991 2.491718,-7.430266 4.08212,2.214328 8.64119,-5.2276105 4.717686,-8.7790685 z"
         id="path1134" /><path
         style="fill:#800080;stroke:#000000;stroke-width:0.111691;stroke-miterlimit:10"
         d="m 21.868894,2.9847 c 4.872954,1.9183448 9.511003,8.55187 8.29002,14.630557 -0.266674,-3.274371 -5.852624,-4.736146 -6.482758,-0.844481 -1.029588,-3.776352 -4.927238,-1.366348 -4.970471,2.274006 -0.770364,-2.883298 -2.911572,-3.347431 -3.937834,-0.229904 0.741126,-2.445895 1.247935,-5.081285 2.454265,-7.256462 4.020766,2.162534 8.51131,-5.1053307 4.646778,-8.573716 z"
         id="path1298" /><path
         style="fill:none;stroke:#000000;stroke-width:0.264583px;stroke-linecap:butt;stroke-linejoin:miter;stroke-opacity:1"
         d="m 23.707821,16.053563 c 0.02719,-0.207652 0.02925,-0.438828 -0.07488,-0.549887 -0.03336,-0.03558 0.0074,-0.894476 -0.04188,-1.042549 -0.244095,-0.733918 -0.95233,-1.343972 -1.414555,-1.811996"
         id="path1310" /><path
         style="fill:none;stroke:#000000;stroke-width:0.264583px;stroke-linecap:butt;stroke-linejoin:miter;stroke-opacity:1"
         d="m 23.413789,6.0512671 c -0.0027,0.2340348 -0.04586,0.4745297 -0.12181,0.7004645 -0.04723,0.1405133 -0.04364,0.6127149 0,0.7436207 0.0167,0.050094 0.07117,0.081711 0.08787,0.1318048 0.0219,0.065702 -0.02207,0.1534793 0,0.2191182 0.105025,0.3124165 0.268841,0.6768372 0.570606,0.8775946 0.103272,0.068705 0.314485,0.095946 0.39314,0.1746014 0.08928,0.089283 0.291303,0.1925743 0.431546,0.2624738 0.34531,0.1721078 0.802388,0.1872986 1.098373,0.483284 0.232825,0.2328246 0.21332,0.4672459 0.306946,0.7445979 0.04605,0.136401 0.0291,-0.01484 0.08732,0.04338 0.03807,0.03808 0.431204,0.646237 0.4382,0.656727 0.106275,0.159415 0.224663,0.452273 0.347615,0.561646"
         id="path1318" /></g><g
       inkscape:label="LeftWing"
       inkscape:groupmode="layer"
       id="layer1"><path
         style="fill:#000000;stroke:#000000;stroke-width:0.112848;stroke-miterlimit:10"
         d="M 9.9066937,2.8598137 C 4.9566272,4.7876739 0.24518373,11.454101 1.4854892,17.562938 1.7563817,14.272326 7.4307281,12.803303 8.0708334,16.714271 9.1167142,12.919186 13.076042,15.341144 13.11996,18.999553 13.902513,16.101955 16.077604,15.635521 17.12011,18.76851 16.367255,16.310482 15.852425,13.662022 14.627006,11.476055 10.542613,13.649316 5.9810069,6.3454024 9.9066937,2.8598137 Z"
         id="path1121" /><path
         style="fill:#800080;stroke:#000000;stroke-width:3;stroke-miterlimit:10"
         d="M 246.515,4.307 C 105.848,52.252 -28.038,218.043 7.208,369.967 14.906,288.131 176.155,251.597 194.345,348.861 224.066,254.479 336.579,314.712 337.827,405.695 360.065,333.633 421.875,322.033 451.5,399.949 430.106,338.819 415.476,272.953 380.653,218.589 264.586,272.637 134.958,90.992 246.515,4.307 Z"
         id="path1300"
         transform="matrix(0.03515922,0,0,0.03981161,1.194857,2.7950263)" /><path
         style="fill:none;stroke:#000000;stroke-width:0.264583px;stroke-linecap:butt;stroke-linejoin:miter;stroke-opacity:1"
         d="m 8.1659456,16.131926 c 0.05896,-0.153042 -0.057464,-0.492666 0.024966,-0.656409 0.063702,-0.126542 0.043385,-0.265956 0.043385,-0.420272 0,-0.09764 0.059666,-0.457137 0,-0.516798 -0.051162,-0.05116 -0.026501,-0.10157 -0.070356,-0.182912 -0.1602748,-0.297273 -0.443746,-0.650285 -0.2636094,-1.008304 0.027829,-0.05531 -0.019698,-0.152971 0,-0.211802 0.2215615,-0.661682 0.7240598,-1.119919 1.0351277,-1.721978"
         id="path1322" /><path
         style="fill:none;stroke:#000000;stroke-width:0.264583px;stroke-linecap:butt;stroke-linejoin:miter;stroke-opacity:1"
         d="M 8.4102264,5.7832249 C 8.0006422,5.9125016 7.857469,6.1035255 7.6189072,6.4667314 7.353556,6.8707237 7.328173,7.2902243 7.1803786,7.7348947 7.1059574,7.9588071 7.1676177,8.2543289 7.0925089,8.479655 6.9772259,8.825504 6.6841954,9.120502 6.5264312,9.4360303 6.4397984,9.6092959 5.810972,10.029447 5.6600013,10.08183 c -0.051521,0.01788 -0.05929,0.103225 -0.08787,0.131805 -0.2290067,0.229007 -0.8491903,0.787162 -0.7342069,1.105767"
         id="path1324" /></g></g><g
     inkscape:groupmode="layer"
     id="layer7"
     inkscape:label="Legs"
     transform="matrix(0.84155562,0,0,2.0021749,1.680005,-33.878597)"><path
       style="fill:#000000;fill-opacity:1;stroke-width:0.00678119;stroke-dasharray:none"
       d="m 15.509326,30.045488 c -0.279096,-0.03261 -0.492914,-0.121686 -0.582866,-0.242821 -0.09194,-0.123805 -0.04497,-0.347504 0.151212,-0.720186 0.4496,-0.854106 0.545935,-1.245685 0.524785,-2.133107 l -0.01406,-0.58983 0.238033,0.131719 c 0.244981,0.135567 0.531888,0.264169 0.749665,0.336035 l 0.124043,0.04092 2.8e-5,0.312451 c 1.6e-5,0.1927 0.01961,0.377808 0.05111,0.482984 0.07972,0.266082 0.139333,0.643871 0.183213,1.16102 0.05798,0.683326 -0.0073,0.902414 -0.320378,1.07547 -0.210199,0.116194 -0.408118,0.157946 -0.740933,0.156345 -0.15464,-7.85e-4 -0.318377,-0.0057 -0.36386,-0.01099 z"
       id="path2455" /><path
       style="fill:#000000;fill-opacity:1;stroke-width:0.00678119;stroke-dasharray:none"
       d="m 19.019872,30.028705 c 0.279096,-0.03261 0.492914,-0.121686 0.582866,-0.242821 0.09194,-0.123805 0.04497,-0.347504 -0.151212,-0.720186 -0.4496,-0.854106 -0.545935,-1.245685 -0.524785,-2.133107 l 0.01406,-0.58983 -0.238033,0.131719 c -0.244981,0.135567 -0.531888,0.264169 -0.749665,0.336035 l -0.124043,0.04092 -2.8e-5,0.312451 c -1.6e-5,0.1927 -0.01961,0.377808 -0.05111,0.482984 -0.07972,0.266082 -0.139333,0.643871 -0.183213,1.16102 -0.05798,0.683326 0.0073,0.902414 0.320378,1.07547 0.210199,0.116194 0.408118,0.157946 0.740933,0.156345 0.15464,-7.85e-4 0.318377,-0.0057 0.36386,-0.01099 z"
       id="path2463" /><path
       style="fill:#000000;fill-opacity:1;stroke-width:0.00029613;stroke-dasharray:none"
       d="m 13.382607,30.244715 c -0.09972,-0.01034 -0.174474,-0.04852 -0.180528,-0.09209 -0.0024,-0.01694 0.02083,-0.05732 0.05149,-0.08976 0.03066,-0.03247 0.0553,-0.06214 0.05478,-0.06598 -0.0016,-0.01119 -0.161781,-3.55e-4 -0.390714,0.0263 -0.116794,0.01362 -0.249714,0.0253 -0.295381,0.02591 -0.08143,10e-4 -0.0831,1.67e-4 -0.08574,-0.04448 -0.0036,-0.05983 0.08902,-0.101582 0.329501,-0.148682 0.175779,-0.03441 0.177156,-0.03498 0.171543,-0.07023 l -0.0056,-0.03552 -0.373231,0.01542 c -0.351932,0.0144 -0.373854,0.01426 -0.383829,-0.003 -0.01814,-0.03179 0.145646,-0.10167 0.310168,-0.132264 0.175692,-0.03269 0.697954,-0.07409 0.819674,-0.06502 0.05877,0.0044 0.109504,3.57e-4 0.210199,-0.01656 0.190514,-0.03199 0.754696,-0.0733 1.149048,-0.08411 l 0.334222,-0.0091 -0.002,0.1 c -0.0052,0.272214 0.278715,0.430473 0.882405,0.491723 l 0.148025,0.01501 -0.629065,0.02306 c -1.292696,0.04723 -1.494864,0.06237 -1.828416,0.136536 -0.151734,0.03373 -0.170172,0.03522 -0.286532,0.0231 z"
       id="path2527" /><path
       style="fill:#000000;fill-opacity:1;stroke-width:0.000280998;stroke-dasharray:none"
       d="m 21.078185,30.203773 c 0.09364,-0.0103 0.164159,-0.04712 0.170299,-0.08896 0.0024,-0.01626 -0.01893,-0.05496 -0.04735,-0.08601 -0.02842,-0.03106 -0.05123,-0.05948 -0.05069,-0.06318 0.0017,-0.01074 0.151745,-8.35e-4 0.366189,0.02406 0.109402,0.01272 0.233952,0.02353 0.276778,0.02397 0.07637,7.54e-4 0.07794,-9.3e-5 0.0809,-0.04297 0.004,-0.05743 -0.08243,-0.09726 -0.307482,-0.141734 -0.164508,-0.0325 -0.165794,-0.03305 -0.160156,-0.06689 l 0.0057,-0.03412 0.349907,0.01367 c 0.329942,0.01275 0.350504,0.01254 0.360045,-0.0042 0.01735,-0.03059 -0.135534,-0.09716 -0.289522,-0.126028 -0.164447,-0.03083 -0.653859,-0.069 -0.768124,-0.05993 -0.05516,0.0043 -0.102721,6.76e-4 -0.196978,-0.01525 -0.178355,-0.03013 -0.70709,-0.06806 -1.076856,-0.07724 l -0.313386,-0.0078 7.59e-4,0.096 c 0.0021,0.261313 -0.265975,0.414108 -0.832849,0.474751 l -0.138998,0.01487 0.589786,0.02021 c 1.211979,0.04141 1.401443,0.05532 1.713511,0.125499 0.141963,0.03192 0.159241,0.0333 0.268507,0.0213 z"
       id="path2533" /><path
       style="fill:#800080;fill-opacity:1;stroke-width:0.000267472;stroke-dasharray:none"
       d="m 13.460866,30.174748 c -0.09688,-0.0087 -0.169498,-0.04075 -0.175379,-0.07734 -0.0023,-0.01422 0.02023,-0.04813 0.05002,-0.07538 0.02979,-0.02726 0.05373,-0.05218 0.05322,-0.05541 -0.0015,-0.0094 -0.157167,-2.99e-4 -0.379571,0.02209 -0.113463,0.01144 -0.242591,0.02125 -0.286956,0.02176 -0.07911,8.76e-4 -0.08073,1.41e-4 -0.08329,-0.03736 -0.0035,-0.05023 0.08648,-0.08531 0.320104,-0.124859 0.170766,-0.0289 0.172104,-0.02938 0.166651,-0.05897 l -0.0055,-0.02983 -0.362586,0.01295 c -0.341895,0.01209 -0.363192,0.01197 -0.372883,-0.0026 -0.01762,-0.0267 0.141492,-0.08538 0.301322,-0.11107 0.170682,-0.02745 0.678048,-0.06222 0.796297,-0.0546 0.05709,0.0037 0.106381,3e-4 0.204204,-0.0139 0.185081,-0.02686 0.733172,-0.06155 1.116277,-0.07063 l 0.32469,-0.0077 -0.0019,0.08398 c -0.0051,0.228594 0.270766,0.361495 0.857239,0.41293 l 0.143803,0.01261 -0.611124,0.01936 c -1.255829,0.03967 -1.452231,0.05238 -1.776269,0.114659 -0.147408,0.02833 -0.16532,0.02958 -0.27836,0.01939 z"
       id="path2535" /><path
       style="fill:#800080;fill-opacity:1;stroke-width:0.00025841;stroke-dasharray:none"
       d="m 20.994034,30.14562 c 0.09058,-0.009 0.158787,-0.0412 0.164726,-0.07778 0.0023,-0.01422 -0.01831,-0.04805 -0.0458,-0.0752 -0.02749,-0.02716 -0.04955,-0.05201 -0.04903,-0.05524 0.0016,-0.0094 0.14678,-7.3e-4 0.354207,0.02104 0.105823,0.01112 0.226297,0.02057 0.267722,0.02096 0.07387,6.59e-4 0.07539,-8.1e-5 0.07825,-0.03757 0.0039,-0.05021 -0.07973,-0.08503 -0.297421,-0.123918 -0.159125,-0.02841 -0.160369,-0.02889 -0.154916,-0.05848 l 0.0055,-0.02983 0.338458,0.01195 c 0.319146,0.01115 0.339035,0.01097 0.348264,-0.0037 0.01678,-0.02674 -0.131099,-0.08495 -0.280048,-0.110187 -0.159067,-0.02695 -0.632465,-0.06033 -0.742991,-0.05239 -0.05336,0.0038 -0.09936,5.91e-4 -0.190533,-0.01333 -0.172519,-0.02634 -0.683954,-0.0595 -1.041621,-0.06753 l -0.303131,-0.0068 7.34e-4,0.08393 c 0.002,0.228465 -0.257272,0.362054 -0.805598,0.415074 l -0.13445,0.013 0.570488,0.01767 c 1.172322,0.0362 1.355587,0.04837 1.657444,0.109724 0.137318,0.02791 0.154031,0.02911 0.259721,0.01862 z"
       id="path2537" /><path
       style="fill:#800080;fill-opacity:1;stroke-width:0.00616907;stroke-dasharray:none"
       d="m 15.628311,30.003496 c -0.229707,-0.03279 -0.405688,-0.122362 -0.479721,-0.24417 -0.07567,-0.124492 -0.03701,-0.349433 0.124453,-0.724186 0.370038,-0.858851 0.449326,-1.252605 0.431918,-2.144957 l -0.01157,-0.593107 0.195909,0.132451 c 0.201629,0.136321 0.437764,0.265637 0.617003,0.337902 l 0.102092,0.04115 2.2e-5,0.314187 c 1.4e-5,0.193771 0.01614,0.379907 0.04208,0.485667 0.0656,0.26756 0.114676,0.647448 0.15079,1.167469 0.04773,0.687122 -0.006,0.907427 -0.263684,1.081446 -0.173001,0.116839 -0.335896,0.158822 -0.609815,0.157213 -0.127275,-7.9e-4 -0.262036,-0.0057 -0.29947,-0.01106 z"
       id="path2746" /><path
       style="fill:#800080;fill-opacity:1;stroke-width:0.00612188;stroke-dasharray:none"
       d="m 18.904422,29.987148 c 0.225666,-0.03287 0.398551,-0.122655 0.471284,-0.244754 0.07433,-0.124792 0.03635,-0.350271 -0.122264,-0.725921 -0.36353,-0.860908 -0.441424,-1.255604 -0.424322,-2.150093 l 0.01137,-0.594526 -0.192465,0.132768 c -0.198083,0.136646 -0.430065,0.266272 -0.606151,0.33871 l -0.100296,0.04124 -2.3e-5,0.314939 c -1.3e-5,0.194234 -0.01585,0.380817 -0.04133,0.48683 -0.06446,0.2682 -0.112659,0.648998 -0.14814,1.170265 -0.04689,0.688767 0.006,0.909599 0.259046,1.084033 0.16996,0.11712 0.329989,0.159205 0.599091,0.157591 0.125036,-7.92e-4 0.257428,-0.0057 0.294204,-0.01108 z"
       id="path3093" /></g><g
     inkscape:groupmode="layer"
     id="layer3"
     inkscape:label="Body"><ellipse
       style="fill:#000000;stroke-width:5.03094"
       id="ellipse1295"
       cx="16.150951"
       cy="17.607519"
       rx="3.3774924"
       ry="8.7947226" /><ellipse
       style="fill:#800080;stroke-width:4.5721"
       id="path1293"
       cx="16.113375"
       cy="17.706879"
       rx="2.8910224"
       ry="8.4859324" /></g><g
     inkscape:groupmode="layer"
     id="layer4"
     inkscape:label="Head"
     transform="matrix(1,0,0,1.3472727,0.32522668,2.7985872)"><path
       style="fill:#000000;stroke-width:0.00369826;stroke-dasharray:none"
       d="M 17.731831,3.9770115 C 17.518269,3.6887503 17.190649,3.3976626 16.894945,3.2334483 l -0.107192,-0.05953 0.100443,-0.063847 c 0.42699,-0.2714179 0.923251,-0.4706972 1.781311,-0.7153069 0.244679,-0.069751 0.265386,-0.07353 0.309817,-0.056557 0.13452,0.051389 0.135932,0.1310122 0.0055,0.3106282 C 18.87077,2.8059189 18.857271,2.832088 18.756475,3.0915417 18.63962,3.39233 18.507497,3.5808307 18.282277,3.7680864 18.169724,3.8616664 17.987845,3.9842309 17.87896,4.039874 l -0.07295,0.037281 z"
       id="path1804" /><ellipse
       style="fill:#000000;stroke-width:4.99999"
       id="ellipse1305"
       cx="15.764394"
       cy="5.394537"
       rx="2.4358494"
       ry="2.4704139" /><ellipse
       style="fill:#800080;stroke-width:4.47992"
       id="path1303"
       cx="15.796817"
       cy="5.3781848"
       rx="2.1363792"
       ry="2.2612298" /><path
       style="fill:#800080;stroke-width:0.0144229;stroke-dasharray:none"
       d="M 68.186217,30.454522 C 67.470353,29.146573 66.372159,27.825799 65.380954,27.080697 L 65.021632,26.81059 65.35832,26.520892 c 1.431281,-1.231524 3.094759,-2.135729 5.971,-3.245615 0.820165,-0.316485 0.889578,-0.333637 1.038515,-0.256619 0.450905,0.233172 0.455645,0.594451 0.01849,1.409436 -0.382313,0.712746 -0.427559,0.831485 -0.765432,2.008723 -0.391702,1.364789 -0.834579,2.220087 -1.589525,3.069736 -0.377279,0.424607 -0.986939,0.980729 -1.351923,1.233203 l -0.244536,0.169155 z"
       id="path1800"
       transform="matrix(0.26458333,0,0,0.19638439,-0.32522668,-2.077224)" /><path
       style="fill:#000000;stroke-width:0.00372596;stroke-dasharray:none"
       d="M 13.579444,3.9457242 C 13.398212,3.8353294 13.329313,3.7817002 13.180761,3.6353926 13.053824,3.5103725 12.935601,3.3365445 12.874064,3.1844435 12.849552,3.1238528 12.804426,3.01304 12.773802,2.9381928 12.742646,2.862053 12.672876,2.7393049 12.615449,2.6595403 12.558996,2.581129 12.507595,2.5009843 12.501213,2.4814415 c -0.02231,-0.068447 0.0688,-0.1689183 0.152603,-0.1682955 0.06312,4.636e-4 0.735168,0.2011049 1.069911,0.3194156 0.40503,0.1431521 0.733539,0.2960767 1.02452,0.4769236 l 0.04837,0.030065 -0.113413,0.061297 c -0.32531,0.175828 -0.631282,0.4371243 -0.86998,0.7429572 l -0.07634,0.09782 z"
       id="path1924" /><path
       style="fill:#800080;stroke-width:0.00328766;stroke-dasharray:none"
       d="M 13.629856,3.8916813 C 13.47124,3.7934762 13.41094,3.7457687 13.280926,3.6156165 13.169828,3.5044011 13.066358,3.3497671 13.012501,3.2144612 c -0.02145,-0.0539 -0.06095,-0.1524772 -0.08776,-0.2190597 -0.02727,-0.067732 -0.08833,-0.1769267 -0.138592,-0.2478837 -0.04941,-0.069753 -0.0944,-0.1410482 -0.09998,-0.1584331 -0.01952,-0.06089 0.06021,-0.1502663 0.13356,-0.1497123 0.05524,4.124e-4 0.643427,0.1788989 0.936398,0.2841457 0.354486,0.1273452 0.642002,0.263384 0.89667,0.4242617 l 0.04234,0.026745 -0.09926,0.054529 c -0.284716,0.1564129 -0.552504,0.388857 -0.761416,0.6609197 l -0.06682,0.087019 z"
       id="path1802" /><path
       style="fill:#000000;stroke-width:0.00199467;stroke-dasharray:none"
       d="m 17.631451,3.7868633 c -0.109347,-0.163778 -0.277095,-0.3291619 -0.4285,-0.4224616 l -0.05489,-0.033822 0.05143,-0.036275 c 0.218625,-0.1542081 0.472719,-0.2674304 0.91206,-0.4064073 0.125279,-0.039629 0.135882,-0.041778 0.158632,-0.032133 0.06887,0.029197 0.06959,0.074436 0.0028,0.1764858 -0.0584,0.089249 -0.06531,0.1041168 -0.116917,0.251527 -0.05983,0.1708954 -0.127481,0.2779935 -0.242797,0.3843843 -0.05763,0.053169 -0.150754,0.1228043 -0.206505,0.1544184 l -0.03736,0.021181 z"
       id="path1807" /><path
       style="fill:#ff417f;stroke-width:0.00185728;stroke-dasharray:none"
       d="M 17.592883,3.7901546 C 17.492261,3.6358505 17.337897,3.4800335 17.198572,3.3921308 l -0.05051,-0.031866 0.04733,-0.034177 c 0.201182,-0.1452877 0.435003,-0.2519605 0.839291,-0.3828981 0.115283,-0.037337 0.12504,-0.039361 0.145975,-0.030274 0.06338,0.027508 0.06404,0.07013 0.0026,0.1662768 -0.05374,0.084086 -0.0601,0.098094 -0.107589,0.2369771 -0.05506,0.1610097 -0.11731,0.2619126 -0.223425,0.3621491 -0.05303,0.050093 -0.138726,0.1157005 -0.190029,0.1454859 l -0.03438,0.019956 z"
       id="path1928" /><path
       style="fill:#000000;fill-opacity:1;stroke-width:0.00213101;stroke-dasharray:none"
       d="M 13.747242,3.7258512 C 13.637044,3.6664622 13.595153,3.6376112 13.504826,3.5589035 13.427636,3.4916475 13.355756,3.3981332 13.31834,3.3163081 13.30344,3.2837131 13.27599,3.2240991 13.25737,3.1838336 13.23843,3.1428736 13.196,3.0768383 13.16108,3.0339282 13.12675,2.9917452 13.0955,2.9486312 13.09163,2.9381162 c -0.01357,-0.036822 0.04184,-0.090873 0.0928,-0.090538 0.03838,2.495e-4 0.447015,0.1081875 0.650556,0.1718347 0.246276,0.077012 0.446026,0.1592792 0.622955,0.2565687 l 0.02942,0.016174 -0.06896,0.032976 c -0.197805,0.09459 -0.383848,0.235158 -0.528988,0.3996855 l -0.04643,0.052625 z"
       id="path1930" /><path
       style="fill:#ff417f;fill-opacity:1;stroke-width:0.00195777;stroke-dasharray:none"
       d="m 13.80683,3.7300855 c -0.101327,-0.054514 -0.139846,-0.080997 -0.222899,-0.1532453 -0.07097,-0.061736 -0.137069,-0.147575 -0.171472,-0.2226842 -0.0137,-0.02992 -0.03893,-0.08464 -0.05606,-0.1216015 -0.01741,-0.037599 -0.05643,-0.098213 -0.08853,-0.1376019 -0.03158,-0.03872 -0.0603,-0.078297 -0.06387,-0.087947 -0.01247,-0.0338 0.03846,-0.083414 0.08532,-0.083106 0.03529,2.289e-4 0.411025,0.099308 0.598178,0.1577312 0.226448,0.07069 0.410114,0.1462063 0.572798,0.2355105 l 0.02704,0.014846 -0.06341,0.030269 c -0.181879,0.086825 -0.352944,0.2158571 -0.486398,0.366881 l -0.04269,0.048305 z"
       id="path2346" /><path
       style="fill:none;stroke:#000000;stroke-width:0.0861534;stroke-linecap:butt;stroke-linejoin:miter;stroke-dasharray:none;stroke-opacity:1"
       d="m 15.183706,3.4157112 c -2.91e-4,-0.041444 0.224278,-0.039514 0.259666,-0.074536 0.04469,-0.044231 0.08362,-0.062289 0.131804,-0.097831 0.0082,-0.00608 0,-0.053088 0,-0.062748 0,-0.1646041 -0.364039,-0.1666239 -0.376629,-0.1781896 -0.03303,-0.030338 -0.108291,-0.086809 -0.131805,-0.1304411 -0.02422,-0.044946 0.01824,-0.3849528 0.04394,-0.4216423 0.01777,-0.025375 0.04369,-0.047362 0.04369,-0.080859"
       id="path4009" /><path
       style="fill:none;stroke:#000000;stroke-width:0.06892269;stroke-linecap:butt;stroke-linejoin:miter;stroke-opacity:1;stroke-dasharray:none"
       d="m 16.135724,3.3748497 c 0.03504,-0.036736 0.202113,-0.2126285 0.12827,-0.2752535 -0.07739,-0.06563 -0.286618,-0.188966 -0.383967,-0.2245931 -0.02819,-0.010316 -0.02733,-0.046182 -0.04363,-0.064325 -0.108155,-0.1204156 -0.08085,-0.2768279 0.107872,-0.3235191 0.130066,-0.03218 0.478274,0.1996228 0.55012,0.1249003 0.04581,-0.04764 0.126287,-0.1386286 0.126287,-0.2033851"
       id="path4014" /></g><g
     inkscape:groupmode="layer"
     id="layer5"
     inkscape:label="Face"
     transform="translate(0.46410584,-0.13906622)"><ellipse
       style="fill:#000000;stroke-width:5.7211"
       id="path1385"
       cx="15.264882"
       cy="9.1276035"
       rx="0.53761476"
       ry="1.0218331" /><ellipse
       style="fill:#000000;stroke-width:5.7211"
       id="ellipse1402"
       cx="15.944878"
       cy="9.1276035"
       rx="0.53761476"
       ry="1.0218331" /><ellipse
       style="fill:#ffffff;stroke-width:4.99999"
       id="ellipse1400"
       cx="15.92937"
       cy="9.1242819"
       rx="0.44831896"
       ry="0.93592972" /><ellipse
       style="fill:#ffffff;stroke-width:4.99999"
       id="ellipse1405"
       cx="15.269709"
       cy="9.1120491"
       rx="0.44831896"
       ry="0.93592972" /><ellipse
       style="fill:#000000;stroke-width:4.99999"
       id="path1409"
       cx="15.282497"
       cy="9.183773"
       rx="0.21192139"
       ry="0.3597334" /><ellipse
       style="fill:#000000;stroke-width:4.99999"
       id="ellipse1411"
       cx="15.994861"
       cy="9.1929216"
       rx="0.21192139"
       ry="0.3597334" /><ellipse
       style="fill:#0000ff;stroke-width:4.99999"
       id="path1413"
       cx="15.274255"
       cy="9.2852287"
       rx="0.085898384"
       ry="0.22731394" /><ellipse
       style="fill:#0000ff;stroke-width:4.99999"
       id="ellipse1415"
       cx="15.975844"
       cy="9.3026133"
       rx="0.085898384"
       ry="0.22731394" /><ellipse
       style="fill:#000000;fill-opacity:1;stroke-width:0.00784096;stroke-dasharray:none"
       id="path3267"
       cx="15.667879"
       cy="10.724581"
       rx="0.87666893"
       ry="0.49415529" /><ellipse
       style="fill:#800080;fill-opacity:1;stroke-width:0.00704966;stroke-dasharray:none"
       id="ellipse3342"
       cx="15.669308"
       cy="10.769307"
       rx="0.82873732"
       ry="0.42255157" /><path
       style="fill:#000000;fill-opacity:1;stroke:#000000;stroke-width:0.0235973;stroke-linecap:round;stroke-linejoin:round;stroke-miterlimit:10"
       d="m 15.404903,11.009349 c -0.0438,0.02805 -0.092,0.05601 -0.138309,0.05776 -0.02377,-3.56e-4 -0.05067,-0.006 -0.06117,-0.02773 -0.02323,-0.06629 0.04008,-0.222498 0.07912,-0.298149 0.06018,-0.113836 0.144284,-0.222594 0.229957,-0.341749 l -0.007,-0.01031 c -0.112128,0.0815 -0.218098,0.175486 -0.299538,0.292467 -0.07172,0.108565 -0.160134,0.276426 -0.11052,0.411101 0.03139,0.07258 0.112844,0.103706 0.183308,0.09319 0.192513,-0.0388 0.354293,-0.266103 0.412042,-0.45464 l -0.01119,-0.0041 c -0.08343,0.119712 -0.175132,0.213279 -0.276787,0.282239 z"
       id="path3339" /><path
       style="fill:#ff417f;fill-opacity:1;stroke:#000000;stroke-width:0.0208752;stroke-linecap:round;stroke-linejoin:round;stroke-miterlimit:10"
       d="m 15.422748,10.970645 c -0.03805,0.02527 -0.07994,0.05045 -0.120176,0.05202 -0.02064,-3.21e-4 -0.04403,-0.0054 -0.05315,-0.02497 -0.02018,-0.05971 0.03482,-0.200397 0.06874,-0.268533 0.05229,-0.102528 0.125369,-0.200485 0.19981,-0.307805 l -0.006,-0.0093 c -0.09744,0.0734 -0.189504,0.158055 -0.260267,0.263416 -0.06232,0.09779 -0.13914,0.248969 -0.09603,0.370267 0.02729,0.06536 0.09805,0.0934 0.159275,0.08393 0.167276,-0.03494 0.307847,-0.23967 0.358024,-0.40948 l -0.0098,-0.0037 c -0.07249,0.107814 -0.152175,0.192094 -0.240503,0.254204 z"
       id="path3242" /><path
       style="fill:#000000;fill-opacity:1;stroke:#000000;stroke-width:0.0235973;stroke-linecap:round;stroke-linejoin:round;stroke-miterlimit:10"
       d="m 15.951901,11.020075 c 0.0438,0.02805 0.092,0.05601 0.138309,0.05776 0.02377,-3.56e-4 0.05067,-0.006 0.06117,-0.02773 0.02323,-0.06629 -0.04008,-0.222498 -0.07912,-0.298149 -0.06018,-0.113836 -0.144284,-0.222594 -0.229957,-0.341749 l 0.007,-0.01031 c 0.112128,0.0815 0.218098,0.175486 0.299538,0.292467 0.07172,0.108565 0.160134,0.276426 0.11052,0.411101 -0.03139,0.07258 -0.112844,0.103706 -0.183308,0.09319 -0.192513,-0.0388 -0.354293,-0.266103 -0.412042,-0.45464 l 0.01119,-0.0041 c 0.08343,0.119712 0.175132,0.213279 0.276787,0.282239 z"
       id="path3759" /><path
       style="fill:#ff417f;fill-opacity:1;stroke:#000000;stroke-width:0.0208752;stroke-linecap:round;stroke-linejoin:round;stroke-miterlimit:10"
       d="m 15.934056,10.981371 c 0.03805,0.02527 0.07994,0.05045 0.120176,0.05202 0.02064,-3.21e-4 0.04403,-0.0054 0.05315,-0.02497 0.02018,-0.05971 -0.03482,-0.200397 -0.06874,-0.268533 -0.05229,-0.102528 -0.125369,-0.200485 -0.19981,-0.307805 l 0.006,-0.0093 c 0.09744,0.0734 0.189504,0.158055 0.260267,0.263416 0.06232,0.09779 0.13914,0.248969 0.09603,0.370267 -0.02729,0.06536 -0.09805,0.0934 -0.159275,0.08393 -0.167276,-0.03494 -0.307847,-0.23967 -0.358024,-0.40948 l 0.0098,-0.0037 c 0.07249,0.107814 0.152175,0.192094 0.240503,0.254204 z"
       id="path3761" /><path
       style="fill:#000000;fill-opacity:1;stroke-width:0.000204711;stroke-dasharray:none"
       d="m 14.359351,12.020321 -0.05,-0.43214 0.05716,-0.0062 c 0.03144,-0.0033 0.08147,-0.0033 0.111175,0 l 0.05401,0.0062 -0.05843,0.431985 c -0.03214,0.237605 -0.05967,0.432055 -0.06118,0.432141 -0.0015,8.5e-5 -0.02524,-0.194302 -0.05274,-0.431986 z"
       id="path3995" /><path
       style="fill:#000000;fill-opacity:1;stroke-width:0.000204711;stroke-dasharray:none"
       d="m 16.809512,12.036781 -0.05,-0.43214 0.05716,-0.0062 c 0.03144,-0.0033 0.08147,-0.0033 0.111175,0 l 0.05401,0.0062 -0.05843,0.431985 c -0.03214,0.237605 -0.05967,0.432055 -0.06118,0.432141 -0.0015,8.5e-5 -0.02524,-0.194302 -0.05274,-0.431986 z"
       id="path3998" /><path
       style="fill:#ffffff;fill-opacity:1;stroke-width:0.000161097;stroke-dasharray:none"
       d="m 14.377541,11.977173 -0.03505,-0.381703 0.04007,-0.0055 c 0.02204,-0.0029 0.05712,-0.0029 0.07795,0 l 0.03787,0.0055 -0.04096,0.381566 c -0.02254,0.209873 -0.04184,0.381627 -0.04289,0.381703 -10e-4,7.5e-5 -0.0177,-0.171624 -0.03698,-0.381566 z"
       id="path4003" /><path
       style="fill:#ffffff;fill-opacity:1;stroke-width:0.000161097;stroke-dasharray:none"
       d="m 16.824974,11.999572 -0.03505,-0.381703 0.04007,-0.0055 c 0.02204,-0.0029 0.05712,-0.0029 0.07795,0 l 0.03787,0.0055 -0.04096,0.381566 c -0.02254,0.209873 -0.04184,0.381627 -0.04289,0.381703 -0.001,7.5e-5 -0.0177,-0.171624 -0.03698,-0.381566 z"
       id="path4006" /><rect
       style="fill:#000000;fill-opacity:1;stroke-width:0.00499999;stroke-dasharray:none"
       id="rect3815"
       width="2.6826372"
       height="0.12350107"
       x="14.305544"
       y="11.575059" /><rect
       style="fill:#ff007e;fill-opacity:1;stroke-width:0.00297962;stroke-dasharray:none"
       id="rect4001"
       width="2.2450261"
       height="0.052407678"
       x="14.519581"
       y="11.616901" /></g><g
     inkscape:groupmode="layer"
     id="layer8"
     inkscape:label="Belly"
     style="fill:#000000"
     transform="translate(0.10438167,-0.32002618)"><path
       style="fill:#000000;fill-opacity:1;stroke-width:0.0104442;stroke-dasharray:none"
       d="m 15.762808,23.841408 c -0.634694,-0.33322 -1.146857,-1.617792 -1.381853,-3.465867 -0.08413,-0.661575 -0.09565,-2.564936 -0.01961,-3.237061 0.125616,-1.110223 0.383908,-2.153393 0.68349,-2.760405 l 0.0732,-0.148323 0.155589,0.03404 c 0.173747,0.03801 1.431778,0.05062 1.610264,0.01613 l 0.114486,-0.02212 0.133256,0.310568 c 0.24593,0.57317 0.451341,1.412793 0.576498,2.35644 0.09382,0.707331 0.09366,2.778311 -2.45e-4,3.494165 -0.168055,1.280969 -0.474465,2.319299 -0.857314,2.905162 -0.133464,0.204237 -0.405877,0.466217 -0.552794,0.531625 -0.142404,0.06339 -0.400033,0.05648 -0.534975,-0.01437 z"
       id="path4237" /><path
       style="fill:#ff6e98;fill-opacity:1;stroke-width:0.0093934;stroke-dasharray:none"
       d="m 15.808791,23.70395 c -0.529658,-0.322996 -0.957062,-1.568152 -1.153168,-3.359522 -0.0702,-0.641274 -0.07982,-2.486232 -0.01636,-3.137734 0.104827,-1.076157 0.320375,-2.087319 0.570378,-2.675706 l 0.06109,-0.143771 0.129841,0.03299 c 0.144992,0.03684 1.19483,0.04907 1.343778,0.01564 l 0.09554,-0.02144 0.111202,0.301038 c 0.205231,0.555583 0.376649,1.369443 0.481093,2.284135 0.07829,0.685628 0.07816,2.693062 -2.05e-4,3.386951 -0.140243,1.241664 -0.395945,2.248134 -0.715435,2.81602 -0.111377,0.19797 -0.338708,0.451912 -0.461311,0.515313 -0.118837,0.06145 -0.333831,0.05475 -0.446441,-0.01393 z"
       id="path4723" /></g></svg>
