<?xml version="1.0" encoding="UTF-8" standalone="no"?>
<!-- Created with Inkscape (http://www.inkscape.org/) -->

<svg
   width="64mm"
   height="64mm"
   viewBox="0 0 64 64"
   version="1.1"
   id="svg5"
   xml:space="preserve"
   inkscape:version="1.2.2 (b0a8486541, 2022-12-01)"
   sodipodi:docname="Gremlon.svg"
   xmlns:inkscape="http://www.inkscape.org/namespaces/inkscape"
   xmlns:sodipodi="http://sodipodi.sourceforge.net/DTD/sodipodi-0.dtd"
   xmlns="http://www.w3.org/2000/svg"
   xmlns:svg="http://www.w3.org/2000/svg"><sodipodi:namedview
     id="namedview7"
     pagecolor="#ffffff"
     bordercolor="#000000"
     borderopacity="0.25"
     inkscape:showpageshadow="2"
     inkscape:pageopacity="0.0"
     inkscape:pagecheckerboard="0"
     inkscape:deskcolor="#d1d1d1"
     inkscape:document-units="mm"
     showgrid="false"
     inkscape:zoom="3.3817057"
     inkscape:cx="130.40756"
     inkscape:cy="116.50925"
     inkscape:window-width="1920"
     inkscape:window-height="1024"
     inkscape:window-x="0"
     inkscape:window-y="29"
     inkscape:window-maximized="1"
     inkscape:current-layer="layer5" /><defs
     id="defs2" /><g
     inkscape:groupmode="layer"
     id="layer3"
     inkscape:label="Hair"
     transform="matrix(0.98423434,0,0,0.98547404,-75.988413,-65.776523)"><path
       style="fill:#000000;stroke-width:0.0403638"
       d="m 108.87302,92.669383 c -0.11083,-0.03507 -0.45248,-0.626352 -0.75922,-1.313945 -0.6376,-1.429263 -1.27947,-2.538528 -1.46889,-2.538528 -0.16548,0 -0.61854,0.742165 -1.31836,2.15963 l -0.55308,1.120263 -0.29037,-0.737321 c -0.82805,-2.10267 -3.22686,-6.002951 -5.118266,-8.321918 -1.300763,-1.594811 -2.941516,-3.21919 -4.613688,-4.567643 -1.066774,-0.860256 -5.299535,-3.817263 -5.623876,-3.92884 -0.140225,-0.04824 -0.311833,-1.591362 -0.176974,-1.591362 0.279118,0 1.165993,0.482726 1.275757,0.694394 0.205596,0.396465 0.344578,0.303959 0.436713,-0.290679 0.04649,-0.300082 0.147654,-0.849331 0.224795,-1.220553 l 0.140258,-0.674949 h 0.549938 c 0.359638,0 0.708282,-0.11021 1.007517,-0.318488 0.708785,-0.493336 1.944516,-0.915748 2.927837,-1.000827 0.754254,-0.06526 0.879525,-0.111198 0.802874,-0.29442 -0.330584,-0.790187 -0.196949,-1.689946 0.341327,-2.298162 l 0.393821,-0.444994 0.542602,0.313712 c 0.57858,0.334513 1.428148,1.261729 1.428148,1.558676 0,0.36599 0.273753,0.155505 0.880764,-0.677207 l 0.624153,-0.856221 0.67418,0.0577 c 0.37088,0.03174 0.80116,-0.01244 0.95644,-0.0982 0.21768,-0.120236 0.52596,-0.108196 1.34743,0.05263 1.34802,0.263907 1.38605,0.262458 1.46671,-0.05589 0.13692,-0.540384 1.54054,-1.112104 1.54054,-0.627493 0,0.106161 0.15564,0.383923 0.34588,0.617249 0.34532,0.423536 0.34613,0.423741 0.49278,0.125191 0.16531,-0.336523 0.66772,-0.737251 1.07525,-0.857638 0.23456,-0.06929 0.3022,0.02102 0.49948,0.666909 0.1255,0.41088 0.24729,0.747056 0.27065,0.747056 0.0234,0 0.29387,-0.09154 0.60114,-0.203425 0.75102,-0.273467 0.78078,-0.266575 0.94473,0.218784 0.13318,0.394276 0.17619,0.417561 0.6502,0.351947 0.29725,-0.04115 0.50758,-0.01386 0.50758,0.06585 0,0.274872 0.42039,1.039963 0.61343,1.116409 0.10938,0.04332 0.35613,-0.03122 0.54831,-0.165643 0.84112,-0.588295 1.69059,-0.741663 1.99706,-0.360556 0.14818,0.184258 0.23107,0.147274 0.68386,-0.305139 l 0.51528,-0.51481 0.39078,0.47466 c 0.21492,0.261063 0.45744,0.72851 0.53896,1.038773 l 0.14818,0.564113 0.35715,-0.394591 c 0.43938,-0.485415 0.64379,-0.493069 1.16149,-0.0435 0.47962,0.416504 0.52106,0.861812 0.13255,1.424893 -0.31296,0.453594 -0.15373,0.532951 0.21823,0.108762 0.31572,-0.360044 0.87948,-0.6642 1.2311,-0.6642 0.19754,0 0.36636,0.201138 0.62419,0.743689 l 0.3534,0.743688 0.33504,-0.228743 c 0.4504,-0.307496 1.55314,-0.2876 2.08666,0.03765 0.22502,0.137178 0.46515,0.415305 0.53364,0.61806 0.12383,0.366594 0.12805,0.367717 0.75851,0.201734 l 0.63399,-0.166913 0.21025,0.483302 c 0.18092,0.415872 0.3552,0.544587 1.2492,0.922559 0.57142,0.241591 1.23739,0.565019 1.47993,0.71873 l 0.441,0.279472 -1.95217,1.363558 c -2.53651,1.771702 -4.02216,3.012046 -5.59228,4.668902 -2.41067,2.543845 -4.41782,5.366414 -5.96398,8.386942 -0.75377,1.47258 -0.75956,1.479491 -0.96481,1.153243 -1.06139,-1.687056 -1.55241,-2.369511 -1.72894,-2.40302 -0.2177,-0.04132 -0.89133,1.324928 -1.64097,3.328267 -0.29148,0.77896 -0.42424,0.983469 -0.63906,0.984402 -0.14915,6.64e-4 -0.56682,0.02742 -0.9282,0.05949 -0.36136,0.03207 -0.74772,0.02961 -0.85855,-0.0054 z"
       id="path663" /><path
       style="fill:#000000;stroke-width:0.0445557"
       d="m 94.407302,103.1305 c -0.432157,-0.64429 -0.563339,-0.73148 -1.104536,-0.73422 -0.33748,-0.002 -0.425839,-0.0675 -0.426171,-0.31772 -2.94e-4,-0.2202 -0.175753,-0.40173 -0.580573,-0.60069 -0.573914,-0.28202 -0.622119,-0.39874 -0.41757,-1.01096 0.09366,-0.28031 -0.0056,-0.35923 -0.919005,-0.730487 -1.072635,-0.435992 -1.179215,-0.585559 -0.78272,-1.098393 0.228408,-0.29543 0.219611,-0.319543 -0.164899,-0.451983 -0.223398,-0.07695 -0.502035,-0.139903 -0.619193,-0.139903 -0.326789,0 -0.409267,-0.228754 -0.152172,-0.422056 0.402463,-0.302599 0.255005,-0.51984 -0.407499,-0.600343 -0.84118,-0.102204 -0.945898,-0.22206 -0.945898,-1.082542 0,-0.675435 -0.03139,-0.736006 -0.449863,-0.868169 -0.472821,-0.149321 -0.752963,-0.486036 -0.752963,-0.905011 0,-0.137421 -0.323842,-0.547714 -0.719646,-0.911765 -0.685095,-0.630134 -0.710607,-0.681678 -0.531403,-1.073623 0.103534,-0.22644 0.368302,-0.486035 0.588377,-0.576877 0.285321,-0.117774 0.35239,-0.208423 0.233737,-0.315916 -0.248341,-0.224983 0.08274,-0.778905 0.525768,-0.879641 0.202194,-0.04597 0.367623,-0.133436 0.367623,-0.194361 0,-0.06092 -0.253264,-0.485755 -0.56281,-0.944068 -1.116754,-1.653465 -1.2103,-1.939488 -0.675744,-2.066129 0.196221,-0.04648 0.309639,-0.191314 0.309639,-0.395391 0,-0.177119 0.216839,-0.524712 0.481863,-0.772431 0.265024,-0.247716 0.436502,-0.516887 0.381063,-0.598152 -0.05544,-0.08126 -0.472853,-0.349362 -0.927585,-0.595767 l -0.826785,-0.448011 0.445722,-0.684845 c 0.245147,-0.376666 0.445722,-0.734182 0.445722,-0.794483 0,-0.0603 -0.174172,-0.257874 -0.387049,-0.43905 -0.495093,-0.421371 -0.487001,-0.489492 0.08357,-0.703604 0.258844,-0.09714 0.571586,-0.307188 0.694982,-0.466792 0.203963,-0.263809 0.187296,-0.325234 -0.183362,-0.67573 l -0.40772,-0.385542 0.409425,-0.169001 c 0.49141,-0.202843 0.49161,-0.205212 0.09451,-1.11791 -0.293289,-0.674098 -0.297755,-0.747531 -0.06504,-1.069297 0.137433,-0.19002 0.273257,-0.324236 0.301833,-0.298258 0.128937,0.117217 0.781389,2.694034 1.396982,5.517293 0.770121,3.531967 1.470021,5.740007 2.484958,7.839532 1.441544,2.982016 3.247181,5.371162 5.727674,7.578629 l 1.564579,1.392367 -0.697022,1.86862 -0.697022,1.86864 H 95.65059 c -0.863082,0 -0.901353,-0.0161 -1.243291,-0.52596 z"
       id="path657" /><path
       style="fill:#000000;stroke-width:0.0421598"
       d="m 122.68193,102.83154 c -0.0933,-0.0566 -0.40429,-0.73324 -0.69109,-1.50353 l -0.52145,-1.400514 1.69091,-1.662663 c 3.94502,-3.879108 6.18121,-8.45381 7.40197,-15.142653 0.3393,-1.859111 0.84591,-3.967569 1.22225,-5.086875 0.12139,-0.361035 0.22309,-0.442879 0.55037,-0.442879 0.33472,0 0.43915,0.08998 0.62819,0.541243 0.13268,0.316703 0.19164,0.708911 0.14212,0.945391 -0.12554,0.599534 0.37834,1.204101 1.17269,1.407022 0.34624,0.08845 0.62901,0.224756 0.62837,0.302896 -6e-4,0.07815 -0.18805,0.448685 -0.41647,0.82343 l -0.41531,0.681352 0.83435,0.817623 0.83433,0.817622 -0.15029,0.709938 c -0.14826,0.70034 -0.14427,0.714778 0.2955,1.06821 0.24519,0.19705 0.44579,0.435605 0.44579,0.530121 0,0.09452 -0.19261,0.425803 -0.42802,0.736195 -0.23541,0.31039 -0.42802,0.654052 -0.42802,0.76369 0,0.10964 0.29148,0.411917 0.64772,0.671728 l 0.64773,0.472383 -0.86173,0.879862 c -1.00345,1.02456 -1.09705,1.442872 -0.47966,2.143684 0.53763,0.610268 0.43139,0.747787 -1.09443,1.416597 -0.51339,0.22503 -0.50791,0.528193 0.0199,1.102381 l 0.46455,0.505351 -0.47752,0.372243 c -0.27264,0.212538 -0.69815,0.805288 -0.99178,1.381594 l -0.51425,1.009349 -0.78363,0.139012 c -0.65005,0.115315 -0.83246,0.213237 -1.07005,0.574446 -0.15752,0.239491 -0.36211,0.410486 -0.45463,0.379996 -0.0925,-0.0305 -0.38315,-0.09396 -0.64585,-0.141031 -0.57813,-0.103586 -1.18694,0.290255 -1.47832,0.956351 -0.23567,0.538715 -1.66828,1.212665 -2.59417,1.220395 -0.54217,0.004 -0.60636,0.0394 -0.60636,0.32964 0,1.03493 -1.71086,2.17407 -2.52373,1.6804 z"
       id="path660" /><path
       style="fill:#ff00ff;stroke-width:0.14201"
       d="m 117.16676,92.481192 c -0.39614,-0.12148 -1.61724,-2.169187 -2.71356,-4.550458 -2.27886,-4.949831 -4.57298,-8.791441 -5.25003,-8.791441 -0.59147,0 -2.21077,2.570266 -4.71201,7.479237 l -1.97681,3.879699 -1.03781,-2.553494 C 98.516918,80.66276 89.943216,67.155294 83.183065,59.124238 78.533945,53.601081 72.669645,47.975526 66.693054,43.30556 62.880236,40.326314 47.751712,30.085598 46.592469,29.699183 c -0.501184,-0.167061 -1.114541,-5.511209 -0.632532,-5.511209 0.99761,0 4.167433,1.671775 4.55975,2.404826 0.73483,1.373042 1.231572,1.052671 1.560876,-1.006678 0.166182,-1.039246 0.527735,-2.941407 0.80345,-4.227025 l 0.501301,-2.337486 h 1.965567 c 1.2854,0 2.531502,-0.381681 3.601019,-1.102991 2.533298,-1.708522 6.949991,-3.171422 10.464529,-3.466068 2.695819,-0.226008 3.143559,-0.385101 2.869591,-1.019635 -1.181552,-2.736579 -0.703924,-5.8526286 1.219954,-7.959006 l 1.40758,-1.5411023 1.939336,1.0864468 c 2.067933,1.1584885 5.10442,4.3696255 5.10442,5.3980115 0,1.2675 0.978432,0.538551 3.147983,-2.3453033 l 2.2308,-2.9652668 2.409614,0.199824 c 1.325586,0.1099279 2.863479,-0.043077 3.418478,-0.3401037 0.778055,-0.4164028 1.879847,-0.3747049 4.815934,0.1822613 4.818031,0.9139646 4.953921,0.9089471 5.242231,-0.1935621 0.4894,-1.8714582 5.50612,-3.85144 5.50612,-2.1731355 0,0.3676577 0.5563,1.3296043 1.23624,2.1376591 1.23422,1.466793 1.2371,1.4675003 1.76126,0.4335632 0.59083,-1.1654496 2.38649,-2.5532506 3.84308,-2.9701744 0.83839,-0.2399749 1.08016,0.072816 1.78526,2.3096409 0.44855,1.4229633 0.88385,2.587206 0.96733,2.587206 0.0835,0 1.05033,-0.3170269 2.14856,-0.7045041 2.68428,-0.9470687 2.79064,-0.9232012 3.3766,0.7576955 0.47601,1.3654595 0.62976,1.4461004 2.32392,1.2188654 1.06245,-0.1425038 1.81419,-0.047994 1.81419,0.2280799 0,0.9519391 1.5025,3.6016036 2.19243,3.8663536 0.39097,0.150031 1.27289,-0.108114 1.95981,-0.573657 3.00624,-2.037384 6.0424,-2.5685307 7.13778,-1.248681 0.5296,0.638125 0.82585,0.510041 2.44426,-1.056756 l 1.84163,-1.7828922 1.39668,1.6438429 c 0.76818,0.9041133 1.63503,2.5229813 1.92633,3.5974833 l 0.52964,1.953641 1.27655,-1.366554 c 1.57037,-1.681087 2.30098,-1.707597 4.15133,-0.15063 1.71424,1.442438 1.86229,2.984632 0.47373,4.934693 -1.11858,1.570893 -0.54947,1.845719 0.78,0.37667 1.12843,-1.246906 3.14338,-2.300262 4.40012,-2.300262 0.70602,0 1.3094,0.696582 2.23093,2.575544 l 1.26317,2.575545 1.19749,-0.792182 c 1.60978,-1.064921 5.55115,-0.99602 7.45799,0.130377 0.80423,0.475074 1.66252,1.438284 1.9073,2.140468 0.44258,1.26959 0.45768,1.27348 2.71103,0.698645 l 2.26596,-0.578052 0.75147,1.673773 c 0.64663,1.440247 1.26956,1.886018 4.46484,3.195009 2.04235,0.836679 4.42264,1.956778 5.28953,2.489108 l 1.57617,0.967872 -6.97736,4.722278 c -9.06585,6.135765 -14.37578,10.431328 -19.98764,16.169357 -8.61614,8.809857 -15.78994,18.584988 -21.31614,29.045694 -2.69416,5.099845 -2.71482,5.123779 -3.44844,3.993914 -3.79357,-5.842617 -5.54853,-8.206097 -6.17944,-8.322147 -0.77812,-0.143132 -3.18575,4.588496 -5.86509,11.526466 -1.04182,2.697697 -1.51634,3.405954 -2.28413,3.409185 -0.53302,0.0023 -2.02588,0.09495 -3.31747,0.206016 -1.2916,0.111058 -2.67247,0.102538 -3.06861,-0.01893 z"
       id="path651"
       transform="matrix(0.26882148,0,0,0.26848331,77.20561,66.746074)" /><path
       style="fill:#ff00ff;stroke-width:0.14201"
       d="m 172.74957,130.90314 c -0.30714,-0.19529 -1.3309,-2.52723 -2.27501,-5.18209 l -1.71658,-4.82702 5.56637,-5.73053 c 12.98671,-13.36971 20.34809,-29.136854 24.36678,-52.190588 1.11696,-6.407602 2.78468,-13.674604 4.02355,-17.532398 0.3996,-1.244342 0.73441,-1.526425 1.81177,-1.526425 1.10189,0 1.44567,0.310101 2.06799,1.865449 0.43675,1.091545 0.63083,2.443324 0.46782,3.258382 -0.41327,2.066347 1.24546,4.150043 3.86039,4.849431 1.13983,0.304858 2.0707,0.774642 2.06859,1.043963 -0.002,0.269321 -0.61906,1.546431 -1.371,2.838022 l -1.36716,2.348347 2.74659,2.818016 2.74659,2.818017 -0.49476,2.446862 c -0.48806,2.413791 -0.47491,2.463553 0.97276,3.681689 0.80713,0.679154 1.46751,1.501354 1.46751,1.82711 0,0.325757 -0.63406,1.467571 -1.40901,2.537365 -0.77496,1.069793 -1.40901,2.254255 -1.40901,2.632136 0,0.377881 0.95952,1.419708 2.13227,2.315171 l 2.13228,1.628114 -2.83678,3.032528 c -3.3033,3.531243 -3.61142,4.972997 -1.57898,7.388413 1.76985,2.103344 1.4201,2.577315 -3.60282,4.882434 -1.69003,0.775584 -1.67198,1.820467 0.0656,3.799462 l 1.52926,1.74174 -1.57196,1.28297 c -0.89754,0.73253 -2.29827,2.7755 -3.26486,4.76179 l -1.69289,3.47882 -2.57967,0.47912 c -2.13991,0.39744 -2.74039,0.73494 -3.52252,1.97988 -0.51857,0.82543 -1.19204,1.41478 -1.49659,1.30969 -0.30455,-0.1051 -1.26131,-0.32383 -2.12613,-0.48607 -1.90316,-0.35704 -3.9073,1.00039 -4.86653,3.29615 -0.7758,1.85673 -5.49182,4.17957 -8.53978,4.20619 -1.7848,0.0156 -1.9961,0.13586 -1.9961,1.13618 0,3.56691 -5.63204,7.49313 -8.30798,5.79168 z"
       id="path653"
       transform="matrix(0.26882148,0,0,0.26848331,77.20561,66.746074)" /><path
       style="fill:#ff00ff;stroke-width:0.14201"
       d="m 60.298198,131.39001 c -1.311013,-2.15743 -1.708976,-2.44943 -3.350784,-2.45857 -1.023803,-0.006 -1.291853,-0.22629 -1.292859,-1.06395 -8.93e-4,-0.73738 -0.533175,-1.34528 -1.761261,-2.01145 -1.741062,-0.94442 -1.887299,-1.33523 -1.266767,-3.38533 0.284111,-0.93864 -0.01712,-1.20293 -2.787947,-2.44612 -3.254013,-1.45997 -3.577342,-1.96081 -2.374509,-3.67809 0.692913,-0.98928 0.666223,-1.07003 -0.500245,-1.51352 -0.677716,-0.25766 -1.523005,-0.46848 -1.878421,-0.46848 -0.99137,0 -1.24158,-0.76601 -0.461641,-1.4133 1.220936,-1.01329 0.773598,-1.74074 -1.236214,-2.01032 -2.551851,-0.34227 -2.869532,-0.74359 -2.869532,-3.62501 0,-2.26177 -0.09522,-2.4646 -1.36473,-2.90716 -1.43438,-0.50002 -2.28424,-1.62755 -2.28424,-3.03053 0,-0.46017 -0.982421,-1.834081 -2.183158,-3.05315 -2.078348,-2.110074 -2.155742,-2.282673 -1.612099,-3.595145 0.314083,-0.758263 1.117305,-1.627546 1.784938,-1.931737 0.865567,-0.394381 1.069031,-0.697928 0.709079,-1.05788 -0.753382,-0.753383 0.251015,-2.608255 1.595003,-2.945574 0.613385,-0.15395 1.115245,-0.446829 1.115245,-0.650843 0,-0.204014 -0.76832,-1.626607 -1.707377,-3.16132 -3.387854,-5.536811 -3.671641,-6.494588 -2.049978,-6.918663 0.595269,-0.155666 0.939339,-0.640636 0.939339,-1.324009 0,-0.593102 0.657813,-1.757058 1.461807,-2.58657 0.803995,-0.829511 1.324202,-1.730855 1.156017,-2.002984 -0.168186,-0.27213 -1.434476,-1.169876 -2.813977,-1.994992 l -2.508184,-1.50021 1.352168,-2.293284 c 0.743693,-1.261305 1.352169,-2.458492 1.352169,-2.660414 0,-0.201922 -0.528379,-0.863517 -1.174174,-1.47021 -1.501945,-1.411004 -1.477398,-1.639117 0.25354,-2.356095 0.785243,-0.325258 1.733995,-1.028656 2.108339,-1.563106 0.618755,-0.883398 0.568191,-1.089084 -0.55626,-2.262757 l -1.236884,-1.29103 1.242058,-0.565919 c 1.49077,-0.67924 1.491377,-0.687177 0.286709,-3.743446 -0.889741,-2.257292 -0.903291,-2.50319 -0.197307,-3.580658 0.416924,-0.636305 0.828971,-1.085743 0.915662,-0.998751 0.39115,0.39251 2.370466,9.021271 4.237966,18.475274 2.336288,11.827182 4.459547,19.221051 7.538523,26.251551 4.373154,9.985612 9.850844,17.985932 17.375819,25.377882 l 4.746401,4.6625 -2.114528,6.25732 -2.114528,6.25731 h -2.701454 c -2.618297,0 -2.734399,-0.0542 -3.771724,-1.76126 z"
       id="path655"
       transform="matrix(0.26882148,0,0,0.26848331,77.20561,66.746074)" /></g><g
     inkscape:label="Body"
     inkscape:groupmode="layer"
     id="layer1"
     transform="matrix(0.98423434,0,0,0.89310118,-75.988414,-53.63652)"><path
       style="fill:#000000;stroke-width:0.0383803"
       d="m 105.30463,131.21508 c -0.65182,-0.30432 -0.91886,-0.71516 -1.17647,-1.81 -0.11317,-0.48099 -0.23673,-0.87365 -0.27458,-0.87256 -0.0379,0.001 -0.24463,0.32909 -0.45952,0.72894 -0.48769,0.90743 -1.15257,1.37493 -2.29428,1.61318 -1.211727,0.25288 -2.217186,0.0514 -2.767034,-0.5547 -0.236495,-0.26065 -0.23877,-0.72171 -0.0074,-1.49522 0.0683,-0.22831 -0.0023,-0.31999 -0.406449,-0.52772 -2.079162,-1.06872 -3.80118,-4.44053 -3.569475,-6.98925 0.109822,-1.208 0.786902,-2.2131 1.592401,-2.36382 0.429833,-0.0804 0.43629,-0.0911 0.366868,-0.60374 -0.03886,-0.28703 -0.198491,-1.59153 -0.354719,-2.89886 -0.320945,-2.68571 -0.261009,-2.59442 -1.348602,-2.05384 -0.688022,0.34197 -1.031268,0.72012 -1.633993,1.80017 -0.204238,0.36598 -0.400232,0.66548 -0.435539,0.66555 -0.03531,7e-5 -0.191749,-0.32789 -0.347645,-0.7288 -0.423955,-1.09028 -1.394341,-2.48669 -2.115507,-3.04428 -0.283686,-0.21935 -0.534574,-0.28349 -1.108641,-0.28349 -0.99656,0 -1.93893,0.45329 -2.774608,1.33462 l -0.643398,0.67856 -10e-4,-1.35522 c -0.0033,-4.22613 -0.709398,-5.95307 -2.577102,-6.30256 -0.259726,-0.0485 -0.472229,-0.13711 -0.472229,-0.19669 0,-0.0595 0.471855,-0.58632 1.048567,-1.17052 1.330573,-1.34787 2.291499,-1.86223 3.478979,-1.86223 1.688728,0 2.9724,0.77143 5.695686,3.42291 1.074161,1.04583 2.022561,1.90151 2.107558,1.90151 0.102196,0 0.128916,-0.11809 0.07889,-0.34861 -0.620324,-2.85871 -0.251038,-6.99433 0.946761,-10.602756 l 0.500192,-1.506848 -1.052373,-1.091979 c -1.293967,-1.34265 -2.025001,-2.285644 -2.969899,-3.830988 -2.016762,-3.298335 -3.340585,-7.231406 -4.049131,-12.029937 -0.362337,-2.453881 -0.849737,-4.613971 -1.430233,-6.338604 -0.737578,-2.191312 -0.857095,-3.541661 -0.392003,-4.42899 0.162142,-0.309345 0.384757,-0.616436 0.494701,-0.682426 0.152732,-0.09167 0.701449,0.214413 2.32566,1.297307 5.82283,3.88219 8.804149,6.705737 11.688117,11.069563 1.62554,2.459676 2.88369,4.925401 3.39718,6.65778 0.1465,0.494296 0.50075,0.759501 0.50075,0.374889 0,-0.247057 1.51369,-3.258953 1.63786,-3.258953 0.14028,0 1.34627,2.421735 1.64723,3.307783 0.22371,0.658661 0.25232,0.687175 0.72989,0.72732 0.27337,0.02298 0.79066,0.0054 1.14952,-0.03896 l 0.65249,-0.08075 0.41626,-1.165361 c 0.48208,-1.349658 1.23594,-3.147737 1.3815,-3.295129 0.11599,-0.117463 0.97207,1.161877 1.48976,2.226361 0.19539,0.401749 0.4031,0.714544 0.46158,0.6951 0.0585,-0.01944 0.32742,-0.547813 0.59763,-1.174154 1.31818,-3.055525 3.62644,-6.547058 6.23204,-9.426761 1.71348,-1.893728 4.52396,-4.158287 8.21431,-6.618708 1.62421,-1.082894 2.17293,-1.38898 2.32565,-1.297307 0.10995,0.06599 0.33256,0.373082 0.49471,0.682427 0.46509,0.887329 0.34557,2.237678 -0.39201,4.428989 -0.56802,1.687584 -1.10427,4.039659 -1.37289,6.021673 -0.63459,4.682376 -2.08319,9.037879 -4.10647,12.346868 -0.9449,1.545344 -1.67593,2.488339 -2.96988,3.830988 l -1.05237,1.091979 0.50019,1.506848 c 0.99228,2.989306 1.45594,6.517976 1.17481,8.940786 -0.0838,0.72233 -0.18644,1.47021 -0.22805,1.66197 -0.0501,0.23052 -0.0233,0.34861 0.0789,0.34861 0.085,0 1.0334,-0.85568 2.10756,-1.90151 2.72328,-2.65148 4.00696,-3.42291 5.69568,-3.42291 1.18749,0 2.14842,0.51436 3.47899,1.86223 0.5767,0.5842 1.04856,1.11095 1.04856,1.17052 0,0.0595 -0.2125,0.14809 -0.47223,0.19669 -1.04306,0.19518 -1.81726,0.92323 -2.12724,2.00046 -0.2636,0.91606 -0.44862,2.68545 -0.44986,4.3021 l -0.001,1.35522 -0.64339,-0.67856 c -0.83568,-0.88133 -1.77805,-1.33462 -2.77462,-1.33462 -0.57405,0 -0.82495,0.0642 -1.10863,0.28349 -0.72117,0.55759 -1.69155,1.954 -2.1155,3.04428 -0.1559,0.40091 -0.31746,0.72893 -0.35902,0.72893 -0.0415,0 -0.14473,-0.15139 -0.22926,-0.33642 -0.58013,-1.27001 -1.5638,-2.21023 -2.50978,-2.39893 l -0.38099,-0.076 -0.2854,2.38817 c -0.15696,1.31349 -0.31719,2.62301 -0.35605,2.91004 -0.0694,0.51268 -0.063,0.52331 0.36687,0.60374 0.47849,0.0896 0.95722,0.53006 1.32546,1.21966 0.3213,0.60169 0.32051,2.54121 -10e-4,3.60591 -0.65255,2.15779 -1.7933,3.66082 -3.5654,4.69767 -0.19188,0.11227 -0.19889,0.1929 -0.0613,0.70473 0.19969,0.7427 0.0926,1.14425 -0.37922,1.42227 -1.37595,0.81068 -3.76964,0.28233 -4.59387,-1.01401 -0.20561,-0.32337 -0.40689,-0.69183 -0.44728,-0.81879 -0.1324,-0.41607 -0.25433,-0.24429 -0.46644,0.6572 -0.2624,1.11516 -0.58399,1.5694 -1.30584,1.84436 -1.94593,0.74125 -3.31955,-0.98397 -2.47831,-3.11269 0.13981,-0.35379 0.25419,-0.77609 0.25419,-0.93846 0,-0.2741 -0.0613,-0.29941 -0.85791,-0.3542 -0.47185,-0.0325 -1.24398,-0.0335 -1.71583,-0.002 -0.79926,0.0529 -0.85793,0.077 -0.85793,0.3542 0,0.1636 0.1144,0.58692 0.25421,0.94071 0.43353,1.09705 0.28527,2.2154 -0.37769,2.84892 -0.49865,0.47651 -1.47323,0.57074 -2.23317,0.21593 z"
       id="path400" /><path
       style="fill:#808000;stroke-width:0.0370378"
       d="m 105.59439,129.94373 c -0.63166,-0.29245 -0.89044,-0.68726 -1.14007,-1.7394 -0.10967,-0.46223 -0.22943,-0.83958 -0.26608,-0.83852 -0.0366,9.7e-4 -0.23707,0.31625 -0.44533,0.7005 -0.4726,0.87203 -1.11689,1.3213 -2.22328,1.55027 -1.17425,0.24301 -2.148592,0.0493 -2.681428,-0.53307 -0.229178,-0.25048 -0.231382,-0.69357 -0.0072,-1.43691 0.06618,-0.2194 -0.0022,-0.3075 -0.393876,-0.50713 -2.014833,-1.02702 -3.683575,-4.26732 -3.459039,-6.71662 0.106424,-1.16089 0.762556,-2.12678 1.543134,-2.27161 0.416536,-0.0773 0.422793,-0.0875 0.355517,-0.5802 -0.03766,-0.27584 -0.192349,-1.52944 -0.343744,-2.78578 -0.311016,-2.58096 -0.252935,-2.49324 -1.306879,-1.97373 -0.666734,0.32863 -0.999361,0.69203 -1.583438,1.72995 -0.197921,0.3517 -0.38785,0.63953 -0.422065,0.63959 -0.03421,7e-5 -0.185816,-0.31511 -0.336889,-0.70039 -0.410838,-1.04774 -1.351204,-2.38968 -2.050057,-2.92552 -0.274909,-0.21079 -0.518035,-0.27244 -1.074342,-0.27244 -0.965728,0 -1.878942,0.43561 -2.688764,1.28258 l -0.623493,0.65208 -0.001,-1.30235 c -0.0031,-4.06129 -0.687451,-5.72088 -2.497371,-6.05672 -0.251692,-0.0467 -0.457619,-0.13177 -0.457619,-0.18902 0,-0.0572 0.457255,-0.56345 1.016124,-1.12487 1.28941,-1.29529 2.220605,-1.78961 3.371346,-1.78961 1.636483,0 2.880439,0.74137 5.519472,3.28942 1.040928,1.00504 1.959986,1.82733 2.042353,1.82733 0.09904,0 0.124928,-0.11348 0.07645,-0.33502 -0.601133,-2.74719 -0.243272,-6.7215 0.917469,-10.189174 l 0.484715,-1.448071 -1.019812,-1.049385 c -1.25393,-1.290278 -1.962347,-2.19649 -2.878011,-3.681557 -1.954368,-3.169681 -3.237234,-6.949337 -3.923857,-11.560699 -0.351127,-2.358164 -0.823447,-4.433998 -1.385985,-6.091359 -0.714758,-2.105837 -0.830578,-3.403516 -0.379876,-4.256233 0.157128,-0.297278 0.372855,-0.592391 0.479396,-0.655808 0.148008,-0.08809 0.679748,0.206051 2.253709,1.246704 5.642681,3.730762 8.531763,6.444174 11.3265,10.637785 1.57527,2.363734 2.79447,4.733281 3.29207,6.398086 0.14199,0.475017 0.48526,0.729876 0.48526,0.360267 0,-0.237422 1.46687,-3.131835 1.5872,-3.131835 0.13594,0 1.30461,2.327273 1.59626,3.178761 0.21679,0.632968 0.24452,0.660369 0.70731,0.698949 0.26491,0.02209 0.7662,0.0052 1.11397,-0.03745 l 0.63228,-0.0776 0.4034,-1.119906 c 0.46716,-1.297013 1.19771,-3.024957 1.33875,-3.166601 0.11241,-0.112878 0.942,1.116559 1.44368,2.139521 0.18935,0.386079 0.39063,0.686672 0.44729,0.667988 0.0567,-0.01869 0.31729,-0.526445 0.57914,-1.128355 1.27741,-2.936342 3.51425,-6.291684 6.03924,-9.059062 1.66047,-1.819862 4.38399,-3.996089 7.96015,-6.360539 1.57398,-1.040654 2.10571,-1.334802 2.25372,-1.246704 0.10654,0.06342 0.32225,0.35853 0.47939,0.655808 0.45071,0.852718 0.33489,2.150396 -0.37987,4.256233 -0.55045,1.621759 -1.07012,3.882087 -1.33042,5.786791 -0.61495,4.499736 -2.01874,8.685348 -3.97942,11.865267 -0.91566,1.485067 -1.62408,2.391279 -2.87801,3.681556 l -1.01981,1.049386 0.48472,1.448071 c 0.96158,2.872695 1.4109,6.263725 1.13847,8.592025 -0.0812,0.69416 -0.18067,1.41287 -0.221,1.59714 -0.0485,0.22154 -0.0225,0.33503 0.0764,0.33503 0.0824,0 1.00144,-0.8223 2.04235,-1.82734 2.63904,-2.54805 3.88299,-3.28942 5.51948,-3.28942 1.15074,0 2.08193,0.49432 3.37135,1.78961 0.55887,0.56142 1.01611,1.06762 1.01611,1.12487 0,0.0573 -0.20593,0.1423 -0.45762,0.18902 -1.01078,0.18755 -1.76103,0.88722 -2.06141,1.92242 -0.25545,0.88032 -0.43475,2.58071 -0.43595,4.1343 l -0.001,1.30235 -0.6235,-0.65208 c -0.80982,-0.84697 -1.72303,-1.28258 -2.68876,-1.28258 -0.55631,0 -0.79944,0.0617 -1.07433,0.27244 -0.69887,0.53584 -1.63923,1.87778 -2.05008,2.92552 -0.15105,0.38528 -0.30762,0.70052 -0.34789,0.70052 -0.0402,0 -0.14026,-0.1455 -0.22217,-0.32332 -0.56219,-1.22046 -1.51541,-2.12401 -2.43213,-2.30535 l -0.3692,-0.0731 -0.27656,2.29501 c -0.15212,1.26225 -0.30738,2.52069 -0.34506,2.79653 -0.0674,0.49268 -0.061,0.5029 0.35552,0.5802 0.46369,0.086 0.92761,0.50937 1.28446,1.17209 0.31136,0.5782 0.3106,2.44207 -10e-4,3.46524 -0.63236,2.07364 -1.73781,3.51803 -3.45509,4.51444 -0.18594,0.10788 -0.19273,0.18538 -0.0594,0.67723 0.19351,0.71374 0.0898,1.09963 -0.3675,1.36679 -1.33337,0.77907 -3.653,0.27133 -4.45174,-0.97444 -0.19925,-0.31078 -0.39429,-0.66485 -0.43344,-0.78686 -0.12831,-0.39984 -0.24646,-0.23476 -0.452,0.63157 -0.25428,1.07166 -0.56593,1.50818 -1.26545,1.77242 -1.88572,0.71233 -3.21684,-0.9456 -2.40163,-2.99129 0.13549,-0.33998 0.24633,-0.74581 0.24633,-0.90184 0,-0.26341 -0.0594,-0.28774 -0.83138,-0.34039 -0.45725,-0.0312 -1.20549,-0.0322 -1.66275,-0.002 -0.77453,0.0508 -0.83136,0.0741 -0.83136,0.34037 0,0.15722 0.11084,0.56404 0.24633,0.90401 0.42012,1.05428 0.27646,2.12899 -0.366,2.73781 -0.48323,0.45791 -1.42766,0.54848 -2.16408,0.20749 z"
       id="path402" /><g
       inkscape:groupmode="layer"
       id="layer2"
       inkscape:label="Belly"
       transform="matrix(1.0160182,0,0,0.78998679,77.162449,79.108137)"><path
         style="fill:#000000;stroke-width:0.0188853"
         d="M 31.099536,57.012314 C 30.339919,56.879119 29.422718,56.264896 28.73474,55.42868 27.766078,54.251302 26.495438,52.092662 24.671165,48.525239 24.371541,47.93932 23.972098,47.166972 23.783511,46.80891 23.089779,45.491754 22.605299,44.298495 22.3898,43.376251 c -0.111711,-0.478075 -0.111528,-1.636546 2.8e-4,-2.04184 0.396347,-1.436192 1.73069,-2.354056 3.237813,-2.227216 1.190647,0.100205 2.372605,0.605302 3.54897,1.516615 0.252392,0.195524 0.484195,0.354054 0.515118,0.352289 0.03093,-0.0018 0.249031,-0.230582 0.484681,-0.508481 1.032575,-1.217699 2.381599,-2.08486 3.859482,-2.480904 0.854511,-0.22899 2.144276,-0.269782 2.933198,-0.09277 2.123827,0.47653 3.554941,2.033916 4.058873,4.416998 0.165815,0.784159 0.151143,2.211175 -0.03254,3.166366 -0.316028,1.643215 -0.830972,3.022407 -1.756726,4.705076 -0.683316,1.242011 -1.241004,2.068999 -2.092225,3.102537 -1.736003,2.107824 -3.510253,3.425777 -4.992549,3.708575 -0.478749,0.09134 -0.626084,0.09397 -1.054663,0.01882 z"
         id="path555" /><path
         style="fill:#aa0000;stroke-width:0.0171927"
         d="m 31.048186,55.898172 c -0.673005,-0.124598 -1.485625,-0.69918 -2.095159,-1.481426 -0.858213,-1.10139 -1.983973,-3.120711 -3.60024,-6.457891 -0.26546,-0.548104 -0.619358,-1.270604 -0.786442,-1.605557 -0.614632,-1.232146 -1.043871,-2.348392 -1.234798,-3.211113 -0.09897,-0.44722 -0.09881,-1.530923 2.48e-4,-1.91006 0.351155,-1.3435 1.533354,-2.202124 2.868632,-2.08347 1.054888,0.09373 2.102077,0.566235 3.144311,1.418732 0.223615,0.182905 0.428987,0.331203 0.456384,0.329552 0.0274,-0.0017 0.220636,-0.215701 0.429417,-0.475663 0.914839,-1.139108 2.110046,-1.950303 3.419418,-2.320786 0.757078,-0.214211 1.899783,-0.25237 2.59875,-0.08678 1.881665,0.445776 3.149602,1.902647 3.596074,4.131925 0.14691,0.733548 0.13391,2.068465 -0.02883,2.962007 -0.279993,1.537161 -0.736223,2.82734 -1.556421,4.401408 -0.605403,1.161852 -1.099502,1.935465 -1.853666,2.902298 -1.538061,1.971786 -3.110009,3.204677 -4.423291,3.469224 -0.424162,0.08545 -0.554697,0.0879 -0.934409,0.0176 z"
         id="path557" /></g></g><g
     inkscape:groupmode="layer"
     id="layer4"
     inkscape:label="Ears"><path
       style="fill:#000000;stroke-width:0.0115247"
       d="m 44.230782,30.68066 c -0.04078,-0.06948 -0.188915,-0.256569 -0.329209,-0.415754 -0.140289,-0.159183 -0.393434,-0.481615 -0.562541,-0.716513 -0.169106,-0.234899 -0.35358,-0.470659 -0.409942,-0.523915 -0.05636,-0.05325 -0.171825,-0.227541 -0.256583,-0.387305 -0.197803,-0.372835 -0.41754,-0.611408 -0.978981,-1.062898 -0.552718,-0.444476 -0.646063,-0.531341 -0.827788,-0.770326 -0.07827,-0.102944 -0.178031,-0.204657 -0.221667,-0.22602 -0.04362,-0.02137 -0.22082,-0.234021 -0.393741,-0.472575 -0.204812,-0.282548 -0.386365,-0.487266 -0.520863,-0.587318 -0.113553,-0.08447 -0.320209,-0.266873 -0.459237,-0.405335 -0.139029,-0.138462 -0.360389,-0.35632 -0.491912,-0.484131 -0.13152,-0.12781 -0.322044,-0.352406 -0.423381,-0.499101 -0.101338,-0.146695 -0.281536,-0.374105 -0.400444,-0.505352 l -0.216195,-0.238632 0.364894,-0.734023 c 1.158652,-2.330759 2.540972,-4.325909 4.455094,-6.430189 1.044172,-1.147908 2.149143,-2.111403 3.801759,-3.315002 1.646952,-1.199475 4.547417,-3.0421004 5.111295,-3.247138 0.22706,-0.082565 0.254865,-0.069903 0.456013,0.2075946 0.332939,0.4593144 0.445568,0.9509594 0.366301,1.5989594 -0.06542,0.534817 -0.152324,0.864016 -0.550662,2.085973 -0.555523,1.70413 -0.796095,2.697748 -1.092447,4.512098 -0.256303,1.569165 -0.489204,2.611066 -0.854214,3.821414 -0.769528,2.551699 -1.883251,4.778225 -3.319276,6.63581 -0.30426,0.393574 -1.314754,1.476172 -1.847889,1.979737 l -0.324247,0.306268 z"
       id="path863" /><path
       style="fill:#000000;stroke-width:0.0117215"
       d="M 19.014341,30.103064 C 17.825893,29.049731 17.08032,28.221225 16.252172,27.033647 15.79394,26.37653 15.451478,25.811779 15.074,25.090727 14.005831,23.050331 13.371153,21.109474 12.850992,18.292734 12.476611,16.265402 12.234572,15.328033 11.678287,13.751082 11.132521,12.20395 11.066553,11.936109 11.066932,11.26889 c 3.57e-4,-0.610624 0.0476,-0.766762 0.35776,-1.182108 0.203899,-0.2730471 0.267908,-0.3165083 0.40907,-0.2777474 0.57747,0.158559 4.152941,2.2666744 5.852786,3.4508294 2.198647,1.531635 3.773337,2.945909 5.27307,4.735902 1.347119,1.607842 2.598591,3.477455 3.275548,4.893438 0.182613,0.381974 0.472521,1.080747 0.473133,1.140411 1.56e-4,0.0152 -0.07419,0.06395 -0.165217,0.108331 -0.342882,0.167158 -1.471938,0.925767 -1.598793,1.074224 -0.0724,0.08472 -0.22542,0.299002 -0.340051,0.476166 -0.114633,0.177163 -0.275192,0.398857 -0.356798,0.492649 -0.0816,0.09378 -0.29267,0.377776 -0.469024,0.63107 -0.453202,0.650925 -1.201684,1.335093 -2.086483,1.907197 -0.348984,0.225651 -0.7059,0.481919 -0.793146,0.569488 -0.08725,0.08756 -0.331682,0.267191 -0.543188,0.399162 -0.390984,0.243954 -0.48372,0.342703 -0.674837,0.71861 -0.04765,0.09373 -0.09679,0.170413 -0.109207,0.170413 -0.01241,0 -0.263157,-0.213238 -0.557214,-0.473861 z"
       id="path868" /><path
       style="fill:#ff6600;stroke-width:0.0110213"
       d="m 44.242499,30.341472 c -0.03864,-0.06706 -0.179005,-0.247637 -0.311937,-0.40128 -0.13293,-0.153642 -0.372793,-0.46485 -0.533028,-0.691571 -0.160235,-0.226721 -0.33503,-0.454275 -0.388435,-0.505677 -0.05341,-0.0514 -0.16281,-0.21962 -0.243122,-0.373822 -0.187425,-0.359857 -0.395633,-0.590125 -0.927618,-1.025898 -0.523721,-0.429003 -0.612168,-0.512844 -0.784358,-0.74351 -0.07417,-0.09936 -0.168691,-0.197533 -0.210038,-0.218152 -0.04134,-0.02062 -0.209235,-0.225874 -0.373084,-0.456124 -0.194066,-0.272712 -0.366094,-0.470304 -0.493535,-0.566873 -0.107596,-0.08153 -0.30341,-0.257583 -0.435144,-0.391224 -0.131734,-0.133642 -0.341481,-0.343916 -0.466104,-0.467278 -0.12462,-0.123361 -0.305148,-0.340139 -0.401168,-0.481728 -0.09602,-0.141588 -0.266766,-0.361081 -0.379435,-0.487759 L 38.090641,23.30025 38.43639,22.59178 c 1.097865,-2.249623 2.407661,-4.17532 4.221359,-6.206348 0.98939,-1.107948 2.036389,-2.037902 3.6023,-3.199603 1.560546,-1.15772 4.308838,-2.936202 4.843133,-3.134102 0.215147,-0.07969 0.241494,-0.06747 0.432088,0.200368 0.315471,0.443326 0.422191,0.917856 0.347084,1.543298 -0.06199,0.516199 -0.144332,0.833939 -0.521773,2.013358 -0.526378,1.644807 -0.754327,2.603837 -1.035132,4.355028 -0.242856,1.51454 -0.463537,2.520171 -0.809397,3.688385 -0.729155,2.462873 -1.784447,4.611891 -3.145131,6.404811 -0.288297,0.379874 -1.245776,1.424786 -1.75094,1.910821 l -0.307236,0.295606 z"
       id="path859" /><path
       style="fill:#ff6600;stroke-width:0.0111594"
       d="m 18.850113,29.921816 c -1.109066,-1.023059 -1.804839,-1.827753 -2.577672,-2.981199 -0.427626,-0.63823 -0.747213,-1.18675 -1.099478,-1.887077 -0.996821,-1.981753 -1.589106,-3.866827 -2.074523,-6.60261 -0.349376,-1.969065 -0.575248,-2.879492 -1.094376,-4.41112 -0.509313,-1.502665 -0.570874,-1.762808 -0.570521,-2.41085 3.34e-4,-0.593074 0.04442,-0.744725 0.333865,-1.148133 0.190279,-0.2652 0.250013,-0.307412 0.381746,-0.269766 0.538898,0.154003 3.875549,2.201529 5.461855,3.351649 2.051792,1.487614 3.521301,2.86124 4.920861,4.599787 1.25714,1.56163 2.425021,3.377508 3.056762,4.752794 0.170415,0.370996 0.440959,1.049685 0.44153,1.107634 1.46e-4,0.01477 -0.06924,0.06212 -0.154181,0.105218 -0.31998,0.162354 -1.373622,0.899159 -1.492003,1.043349 -0.06756,0.08229 -0.210364,0.290409 -0.317339,0.462481 -0.106975,0.172072 -0.25681,0.387393 -0.332966,0.478489 -0.07616,0.09109 -0.27312,0.366918 -0.437695,0.612933 -0.42293,0.632216 -1.121419,1.29672 -1.947119,1.852381 -0.325674,0.219166 -0.65875,0.468069 -0.740168,0.553121 -0.08142,0.08505 -0.309528,0.259511 -0.506908,0.38769 -0.364868,0.236942 -0.451409,0.332853 -0.629761,0.697956 -0.04447,0.09104 -0.09033,0.165515 -0.101913,0.165515 -0.01159,0 -0.24558,-0.20711 -0.519996,-0.460242 z"
       id="path861" /><path
       style="fill:#000000;stroke-width:0.00644277"
       d="m 42.692596,28.566618 c -0.02289,-0.03868 -0.106055,-0.142833 -0.184814,-0.231452 -0.07874,-0.08861 -0.220867,-0.268117 -0.315801,-0.398886 -0.09493,-0.130768 -0.198496,-0.262018 -0.230138,-0.291665 -0.03164,-0.02965 -0.09645,-0.126673 -0.14404,-0.215614 -0.111041,-0.207559 -0.234402,-0.340374 -0.549585,-0.59172 -0.310289,-0.247441 -0.362691,-0.295798 -0.464708,-0.428843 -0.04394,-0.05731 -0.09994,-0.113933 -0.124442,-0.125826 -0.02449,-0.01189 -0.123964,-0.13028 -0.221041,-0.263084 -0.114978,-0.157296 -0.2169,-0.271263 -0.292404,-0.326961 -0.06375,-0.04702 -0.179762,-0.14857 -0.25781,-0.225652 -0.07804,-0.07708 -0.202316,-0.198365 -0.276151,-0.269518 -0.07384,-0.07115 -0.18079,-0.196186 -0.23768,-0.277852 -0.0569,-0.08167 -0.158051,-0.208264 -0.224804,-0.28133 l -0.121368,-0.132848 0.204846,-0.408633 c 0.650451,-1.297542 1.426464,-2.408249 2.501024,-3.57971 0.586184,-0.639045 1.206498,-1.175425 2.134252,-1.845473 0.924576,-0.667753 2.552854,-1.693548 2.869407,-1.807693 0.127469,-0.04597 0.143079,-0.03891 0.255999,0.115568 0.186906,0.255702 0.250136,0.529403 0.205638,0.890146 -0.03672,0.297735 -0.08552,0.481001 -0.309135,1.161269 -0.311863,0.948696 -0.446916,1.501847 -0.613284,2.511902 -0.143885,0.87356 -0.274632,1.453589 -0.479544,2.127394 -0.432001,1.42054 -1.057229,2.660056 -1.863392,3.69418 -0.170806,0.219104 -0.738084,0.821791 -1.037379,1.102126 l -0.182027,0.170501 z"
       id="path873" /><path
       style="fill:#ff2a2a;stroke-width:0.00591864"
       d="m 42.684594,28.52572 c -0.02019,-0.03701 -0.09354,-0.136664 -0.163008,-0.221455 -0.06946,-0.08479 -0.194809,-0.256536 -0.278542,-0.381657 -0.08373,-0.12512 -0.175076,-0.250701 -0.202984,-0.279068 -0.02791,-0.02837 -0.08508,-0.121201 -0.127047,-0.206301 -0.09794,-0.198594 -0.206745,-0.325672 -0.484742,-0.566162 -0.273679,-0.236754 -0.319899,-0.283023 -0.409879,-0.410321 -0.03876,-0.05483 -0.08815,-0.109012 -0.109759,-0.120391 -0.0216,-0.01138 -0.109339,-0.124653 -0.194961,-0.251721 -0.101413,-0.150502 -0.191309,-0.259547 -0.257905,-0.31284 -0.05623,-0.04499 -0.158552,-0.142152 -0.227392,-0.215905 -0.06884,-0.07375 -0.178446,-0.189797 -0.24357,-0.257877 -0.06512,-0.06808 -0.15946,-0.187712 -0.209637,-0.265851 -0.05018,-0.07814 -0.139403,-0.199269 -0.19828,-0.269179 l -0.107049,-0.12711 0.180677,-0.390983 c 0.573707,-1.241499 1.258163,-2.304233 2.205941,-3.425096 0.517022,-0.611443 1.064148,-1.124657 1.882441,-1.765764 0.815489,-0.638911 2.251654,-1.620401 2.530859,-1.729616 0.112429,-0.04398 0.126197,-0.03723 0.225795,0.110577 0.164854,0.244658 0.220623,0.506537 0.181374,0.851699 -0.03239,0.284875 -0.07542,0.460226 -0.272661,1.111112 -0.275067,0.907719 -0.394186,1.436979 -0.540925,2.403408 -0.126908,0.835829 -0.242229,1.390806 -0.422964,2.035508 -0.381032,1.359185 -0.932492,2.545163 -1.64354,3.534622 -0.150654,0.209641 -0.651001,0.786296 -0.914983,1.054524 l -0.160551,0.163136 z"
       id="path871" /><path
       style="fill:#000000;fill-opacity:1;stroke-width:0.00712562"
       d="m 20.979294,28.529867 c -0.81577,-0.535323 -1.335961,-0.966965 -1.927181,-1.599134 -0.327137,-0.349793 -0.57532,-0.653293 -0.853827,-1.044131 -0.788103,-1.105974 -1.292939,-2.179323 -1.768229,-3.759484 -0.342086,-1.137313 -0.544507,-1.659312 -0.980755,-2.52914 -0.428001,-0.85338 -0.483791,-1.002713 -0.517038,-1.383928 -0.03043,-0.348881 -0.0079,-0.440727 0.170323,-0.695367 0.117183,-0.1674 0.15609,-0.195811 0.248651,-0.181562 0.378655,0.0583 2.779667,1.062733 3.930283,1.644194 1.488257,0.752085 2.570083,1.472018 3.622652,2.410797 0.945458,0.843248 1.842657,1.8414 2.34829,2.612515 0.136397,0.208016 0.35757,0.591023 0.360958,0.625075 8.7e-4,0.0087 -0.04441,0.0407 -0.100627,0.07114 -0.211717,0.114672 -0.898414,0.611227 -0.972394,0.703137 -0.04222,0.05246 -0.129695,0.183434 -0.194389,0.291062 -0.06469,0.10763 -0.156633,0.243263 -0.20431,0.301412 -0.04769,0.05814 -0.168911,0.232198 -0.269404,0.386773 -0.25825,0.397229 -0.704383,0.829967 -1.243646,1.206303 -0.212695,0.148437 -0.428947,0.314808 -0.480558,0.369717 -0.05162,0.0549 -0.199505,0.1712 -0.328654,0.258428 -0.238738,0.161241 -0.29331,0.222844 -0.397127,0.448295 -0.02588,0.05621 -0.05357,0.102779 -0.06154,0.103477 -0.008,6.97e-4 -0.179633,-0.107115 -0.381477,-0.239564 z"
       id="path1499" /><path
       style="fill:#ff2a2a;fill-opacity:1;stroke-width:0.00648241"
       d="M 20.996563,28.104897 C 20.255984,27.616875 19.783741,27.223372 19.247014,26.647061 18.95003,26.328175 18.724723,26.051492 18.471887,25.695188 17.756425,24.686936 17.29812,23.708427 16.866639,22.267888 16.556083,21.231067 16.37232,20.755191 15.976282,19.96222 15.587731,19.184244 15.537083,19.048106 15.5069,18.700575 c -0.02762,-0.318054 -0.0072,-0.401785 0.154624,-0.633926 0.106382,-0.152608 0.141703,-0.178508 0.225733,-0.165518 0.343753,0.05314 2.523459,0.96883 3.568021,1.498914 1.35108,0.685632 2.333192,1.341952 3.288744,2.197782 0.858313,0.768739 1.672815,1.678696 2.131843,2.381676 0.123825,0.189635 0.324612,0.5388 0.327688,0.569844 7.89e-4,0.008 -0.04032,0.0371 -0.09135,0.06485 -0.192202,0.10454 -0.815605,0.557219 -0.882766,0.641009 -0.03833,0.04782 -0.117741,0.167225 -0.176471,0.265343 -0.05873,0.09812 -0.142196,0.221769 -0.185479,0.27478 -0.04329,0.053 -0.153342,0.211681 -0.244573,0.352598 -0.234446,0.362131 -0.639458,0.756632 -1.129016,1.099716 -0.193091,0.135321 -0.38941,0.286991 -0.436264,0.337049 -0.04686,0.05005 -0.181116,0.156073 -0.298361,0.235593 -0.216733,0.146994 -0.266276,0.203154 -0.360523,0.408684 -0.0235,0.05125 -0.04864,0.0937 -0.05587,0.09433 -0.0073,6.36e-4 -0.163075,-0.09765 -0.346315,-0.218395 z"
       id="path876" /></g><g
     inkscape:groupmode="layer"
     id="layer5"
     inkscape:label="Wings"
     transform="translate(7.9683838,-11.4822)"><path
       style="fill:#000000;fill-opacity:1;stroke-width:0.0170937"
       d="m 46.476461,58.647637 c -0.03975,-0.293728 -0.141094,-0.852277 -0.225188,-1.24122 -0.456929,-2.113342 -1.237081,-3.662674 -2.049515,-4.070198 -0.710958,-0.356625 -1.403547,0.232931 -1.854095,1.578275 -0.104289,0.311405 -0.160848,0.432486 -0.139588,0.298821 0.01966,-0.123588 0.134188,-0.524368 0.254515,-0.890611 0.985681,-3.000171 2.837737,-1.753984 3.767645,2.535123 0.169395,0.781307 0.362359,2.059312 0.335452,2.221676 -0.0094,0.05619 -0.04947,-0.138139 -0.08923,-0.431866 z"
       id="path3700" /><path
       style="fill:#000000;fill-opacity:1;stroke-width:0.0109167"
       d="m 40.160323,60.832991 c -0.01981,-0.240475 -0.07029,-0.697759 -0.112187,-1.016187 -0.227635,-1.730193 -0.616296,-2.998631 -1.021039,-3.332271 -0.354189,-0.291969 -0.699227,0.1907 -0.923685,1.292134 -0.05195,0.254947 -0.08013,0.354076 -0.06954,0.244644 0.0098,-0.101181 0.06685,-0.4293 0.126797,-0.729143 0.491052,-2.45624 1.41372,-1.435987 1.876988,2.075505 0.08439,0.639656 0.180522,1.685959 0.167117,1.818886 -0.0047,0.046 -0.02464,-0.113094 -0.04445,-0.353568 z"
       id="path3702" /><path
       style="fill:#000000;fill-opacity:1;stroke-width:0.0170937"
       d="m 1.2497557,58.649602 c 0.03975,-0.293728 0.141094,-0.852277 0.225188,-1.24122 0.456929,-2.113342 1.237081,-3.662674 2.0495149,-4.070198 0.710958,-0.356625 1.403547,0.232931 1.8540951,1.578275 0.104289,0.311405 0.160848,0.432486 0.139588,0.298821 -0.01966,-0.123588 -0.134188,-0.524368 -0.254515,-0.890611 -0.9856811,-3.000171 -2.837737,-1.753984 -3.767645,2.535123 -0.169395,0.781307 -0.362359,2.059312 -0.335452,2.221676 0.0094,0.05619 0.04947,-0.138139 0.08923,-0.431866 z"
       id="path3704" /><path
       style="fill:#000000;fill-opacity:1;stroke-width:0.011503"
       d="m 7.6097822,60.628842 c 0.023755,-0.222578 0.084319,-0.645831 0.1345735,-0.94056 0.2730632,-1.60143 0.739286,-2.77547 1.2248007,-3.08428 0.424872,-0.27024 0.8387667,0.176509 1.1080166,1.195972 0.06232,0.235974 0.09612,0.327725 0.08342,0.226438 -0.01175,-0.09365 -0.08019,-0.397351 -0.1521,-0.67488 -0.589048,-2.273443 -1.6958461,-1.329118 -2.2515639,1.921044 -0.1012313,0.592052 -0.2165476,1.560487 -0.2004678,1.683522 0.00562,0.04258 0.029564,-0.104678 0.053324,-0.327256 z"
       id="path3706" /></g><g
     inkscape:groupmode="layer"
     id="layer6"
     inkscape:label="Face"><path
       style="fill:#000000;fill-opacity:1;stroke-width:0.0192858"
       d="m 24.555313,41.094572 c -0.388804,-0.974588 -0.706916,-1.830083 -0.706916,-1.901096 0,-0.151335 0.227087,-0.271481 0.417622,-0.220954 0.145987,0.03871 0.234115,0.215488 0.706142,1.416453 0.263831,0.67126 0.327125,0.77957 0.473495,0.810265 0.207978,0.04361 0.208639,0.04289 0.899861,-0.985628 0.296071,-0.440542 0.554009,-0.800387 0.573199,-0.799655 0.01918,8.2e-4 0.456152,0.498651 0.97103,1.106487 0.705661,0.833069 0.972067,1.105154 1.082078,1.105154 0.102958,0 0.545237,-0.381087 1.501678,-1.293907 0.745654,-0.711649 1.36587,-1.269175 1.378258,-1.238943 0.01236,0.03023 0.253013,0.566577 0.534722,1.191877 0.467462,1.03761 0.527593,1.138462 0.688453,1.154655 0.151007,0.01519 0.318217,-0.120501 1.167428,-0.947428 0.545144,-0.530843 1.015962,-0.965168 1.046258,-0.965168 0.03029,0 0.486811,0.421231 1.014478,0.936066 1.247075,1.216748 1.210596,1.214685 1.602632,0.09066 0.312194,-0.8951 0.435251,-1.044596 0.721812,-0.876892 0.08457,0.04951 0.153768,0.128529 0.153768,0.175621 0,0.08671 -0.898374,2.756735 -0.954758,2.837608 -0.01681,0.02412 -0.533497,-0.448144 -1.148191,-1.049458 -1.2795,-1.251649 -1.326472,-1.287811 -1.524062,-1.17329 -0.0759,0.044 -0.637725,0.5714 -1.248486,1.172011 l -1.110474,1.092022 -0.50959,-1.140117 c -0.280273,-0.627067 -0.545694,-1.181376 -0.589825,-1.231802 -0.164935,-0.188464 -0.416802,-0.01079 -1.594641,1.12446 -0.648273,0.624871 -1.197788,1.120849 -1.221149,1.102172 -0.02335,-0.01868 -0.41939,-0.471919 -0.880073,-1.007207 -0.693709,-0.80605 -0.867138,-0.973246 -1.009516,-0.973246 -0.14965,0 -0.265195,0.135904 -0.89225,1.049459 -0.396187,0.5772 -0.746377,1.085985 -0.778203,1.130629 -0.03792,0.05322 -0.301341,-0.529136 -0.76478,-1.69081 z"
       id="path1768" /><path
       style="fill:#ff0000;fill-opacity:1;stroke-width:0.0161159"
       d="m 25.06607,41.159477 c -0.359153,-0.736723 -0.653005,-1.383419 -0.653005,-1.4371 0,-0.114399 0.209769,-0.205221 0.385773,-0.167026 0.134854,0.02926 0.216261,0.162895 0.65229,1.070742 0.243711,0.507427 0.302179,0.589303 0.437386,0.612506 0.192116,0.03297 0.192727,0.03242 0.831236,-0.745068 0.273491,-0.33302 0.511759,-0.605038 0.529485,-0.604485 0.01772,6.2e-4 0.421365,0.376946 0.896977,0.836429 0.651846,0.629744 0.897935,0.835422 0.999557,0.835422 0.09511,0 0.503656,-0.288076 1.387157,-0.978106 0.688789,-0.537958 1.261706,-0.95941 1.273149,-0.936557 0.01141,0.02285 0.233717,0.428293 0.493943,0.900978 0.431812,0.784363 0.487358,0.8606 0.63595,0.872841 0.139491,0.01149 0.293949,-0.09109 1.078397,-0.716191 0.50357,-0.401282 0.938483,-0.729602 0.966468,-0.729602 0.02799,0 0.449686,0.318421 0.937112,0.707602 1.151971,0.91978 1.118274,0.91822 1.480413,0.06853 0.288385,-0.676635 0.402057,-0.789644 0.666765,-0.662871 0.07812,0.03742 0.142041,0.09716 0.142041,0.132758 0,0.06554 -0.829862,2.083904 -0.881946,2.145039 -0.01552,0.01823 -0.492812,-0.338766 -1.060628,-0.793319 -1.181922,-0.946162 -1.225312,-0.973498 -1.407833,-0.886928 -0.07011,0.03326 -0.589092,0.43194 -1.153275,0.885961 l -1.025787,0.825494 -0.470727,-0.861851 c -0.258899,-0.474019 -0.504078,-0.89304 -0.544844,-0.931158 -0.152357,-0.142466 -0.385016,-0.0082 -1.47303,0.850015 -0.598835,0.47236 -1.106443,0.847286 -1.128021,0.833167 -0.02157,-0.01412 -0.387408,-0.356738 -0.812958,-0.761379 -0.640805,-0.609319 -0.801008,-0.735709 -0.932528,-0.735709 -0.138237,0 -0.24497,0.102734 -0.824205,0.79332 -0.365973,0.436324 -0.689457,0.820931 -0.718855,0.854679 -0.03503,0.04023 -0.27836,-0.399991 -0.706457,-1.278137 z"
       id="path1770" /><path
       style="fill:#000000;fill-opacity:1;stroke-width:0.0265438"
       d="m 26.906102,36.923689 c -0.417913,-0.373204 -0.425064,-0.374169 -1.472881,-0.198958 -0.319663,0.05345 -0.334313,0.04398 -0.572597,-0.370345 -0.259939,-0.451978 -0.516228,-0.616014 -0.962463,-0.616014 -0.443136,0 -0.828215,-0.226374 -1.498124,-0.880702 -0.795426,-0.77692 -1.015467,-1.174582 -1.015467,-1.835162 0,-0.803014 0.441342,-1.891927 1.037408,-2.559573 0.156318,-0.175088 0.458582,-0.661599 0.671699,-1.08113 0.932843,-1.836355 2.334744,-2.37727 3.762676,-1.451804 1.693614,1.097658 2.467989,4.271524 1.717594,7.039759 -0.369597,1.363466 -0.855492,2.310872 -1.181493,2.3037 -0.05339,-0.0012 -0.272248,-0.158572 -0.486352,-0.349771 z"
       id="path1898" /><path
       style="fill:#ffffff;fill-opacity:1;stroke-width:0.0894112"
       d="m 100.7439,138.20818 c -1.369442,-1.29225 -1.392875,-1.29559 -4.826426,-0.68891 -1.047492,0.18508 -1.095501,0.15227 -1.876321,-1.28235 -0.851786,-1.56501 -1.691613,-2.133 -3.153861,-2.133 -1.452095,0 -2.713945,-0.78384 -4.909146,-3.0495 -2.606504,-2.69015 -3.327548,-4.06709 -3.327548,-6.3544 0,-2.7805 1.446218,-6.55095 3.399443,-8.86273 0.512233,-0.60626 1.502712,-2.29084 2.201066,-3.7435 3.056799,-6.35853 7.650638,-8.23149 12.329773,-5.02699 5.54974,3.80073 8.08726,14.7905 5.62832,24.37574 -1.21112,4.72111 -2.80333,8.00158 -3.87159,7.97675 -0.17495,-0.004 -0.89212,-0.54907 -1.59371,-1.21111 z"
       id="path1891"
       transform="scale(0.26458333)" /><path
       style="fill:#000000;fill-opacity:1;stroke-width:0.0266437"
       d="m 35.45688,36.902065 c -0.309161,-0.432999 -0.756424,-1.631762 -0.939727,-2.518669 -0.210433,-1.018185 -0.141425,-2.917836 0.137653,-3.789199 0.594845,-1.857292 1.762563,-2.982837 3.10053,-2.988555 1.024724,-0.0045 1.819009,0.571529 2.478616,1.797158 0.211403,0.392819 0.514713,0.865461 0.674014,1.050318 0.653288,0.758087 1.148569,1.877876 1.146716,2.592633 -0.0012,0.492546 -0.348267,1.110077 -0.962973,1.713786 -0.668685,0.656719 -1.062439,0.877088 -1.709378,0.956667 -0.544139,0.06694 -0.716742,0.189249 -1.04787,0.74257 -0.146101,0.244129 -0.194789,0.267407 -0.462057,0.220886 -1.016104,-0.176863 -1.02007,-0.176352 -1.488449,0.192241 -0.241302,0.189894 -0.497984,0.345261 -0.570411,0.345261 -0.07242,0 -0.232927,-0.141793 -0.356664,-0.315097 z"
       id="path1895" /><path
       style="fill:#ffffff;fill-opacity:1;stroke-width:0.0894112"
       d="m 135.75807,138.31777 c -0.9893,-1.52385 -2.42051,-5.74263 -3.00707,-8.8639 -0.67337,-3.58328 -0.45255,-10.26868 0.44048,-13.33525 1.90347,-6.53633 5.64009,-10.49744 9.9215,-10.51756 3.27905,-0.0154 5.82071,2.01137 7.93141,6.3247 0.67648,1.38244 1.64705,3.0458 2.1568,3.69636 2.09048,2.66792 3.67535,6.60877 3.66942,9.1242 -0.004,1.73341 -1.11443,3.90667 -3.08145,6.03129 -2.13975,2.31118 -3.39974,3.08672 -5.4699,3.36678 -1.74121,0.23557 -2.29353,0.66602 -3.35312,2.61331 -0.46751,0.85916 -0.62331,0.94108 -1.47855,0.77736 -3.25147,-0.62243 -3.26416,-0.62063 -4.76294,0.67655 -0.77215,0.66829 -1.59352,1.21507 -1.82528,1.21507 -0.23176,0 -0.74535,-0.49901 -1.1413,-1.10891 z"
       id="path1893"
       transform="scale(0.26458333)" /><path
       style="fill:#000000;fill-opacity:1;stroke-width:0.0148076"
       d="m 26.431665,35.124744 c -0.245509,-0.197699 -0.24971,-0.19821 -0.865268,-0.105395 -0.187791,0.02831 -0.196398,0.0233 -0.336381,-0.196185 C 25.07731,34.583736 24.926748,34.49684 24.6646,34.49684 c -0.260327,0 -0.486548,-0.119918 -0.880098,-0.466538 -0.467287,-0.411561 -0.596554,-0.622217 -0.596554,-0.972149 0,-0.425384 0.259274,-1.002219 0.609443,-1.355894 0.09183,-0.09275 0.269402,-0.350472 0.394601,-0.572712 0.548015,-0.972781 1.371585,-1.259322 2.210448,-0.769071 0.994942,0.581468 1.449861,2.262774 1.009029,3.729204 -0.217126,0.722275 -0.502573,1.224149 -0.694088,1.22035 -0.03136,-6.12e-4 -0.159937,-0.084 -0.285716,-0.185286 z"
       id="path1901" /><path
       style="fill:#000000;fill-opacity:1;stroke-width:0.0160147"
       d="m 36.204675,35.863914 c -0.17655,-0.273942 -0.431963,-1.032347 -0.53664,-1.593455 -0.120169,-0.644163 -0.08076,-1.845991 0.07861,-2.397264 0.339692,-1.17503 1.006527,-1.887115 1.770584,-1.890732 0.585177,-0.0027 1.03876,0.361582 1.415434,1.136985 0.120724,0.24852 0.293932,0.547541 0.384901,0.664491 0.373066,0.47961 0.655901,1.188052 0.654842,1.640249 -7.13e-4,0.311613 -0.19888,0.702297 -0.549913,1.084238 -0.381858,0.415479 -0.606715,0.554897 -0.976155,0.605243 -0.310735,0.04235 -0.409301,0.11973 -0.598395,0.469793 -0.08343,0.15445 -0.111236,0.169176 -0.263861,0.139745 -0.580255,-0.111894 -0.58252,-0.111571 -0.849991,0.121623 -0.137798,0.120138 -0.284379,0.218431 -0.325739,0.218431 -0.04136,0 -0.133014,-0.0897 -0.203675,-0.199347 z"
       id="path1903" /><path
       style="fill:#000000;fill-opacity:1;stroke-width:0.0894112"
       d="m 109.78104,143.91659 c -1.79747,-1.01489 -2.34019,-1.82205 -2.34019,-3.48047 0,-3.43397 3.33195,-4.40246 5.87379,-1.70733 1.12251,1.19021 1.46622,2.61556 0.98346,4.07835 -0.67758,2.05307 -2.18854,2.42418 -4.51706,1.10945 z"
       id="path1917"
       transform="scale(0.26458333)" /><path
       style="fill:#000000;fill-opacity:1;stroke-width:0.0894112"
       d="m 125.0722,144.07433 c -1.01395,-0.87216 -1.30909,-2.93973 -0.61206,-4.28765 0.76586,-1.48101 2.35878,-2.51727 3.91952,-2.5498 1.15572,-0.0241 1.44403,0.0965 2.05432,0.85911 0.79117,0.98866 0.9572,2.83653 0.37056,4.12407 -0.39838,0.87435 -3.15976,2.52938 -4.22022,2.52938 -0.4,0 -1.08045,-0.3038 -1.51212,-0.67511 z"
       id="path1919"
       transform="scale(0.26458333)" /><path
       style="fill:#ff6600;fill-opacity:1;stroke-width:0.012657"
       d="m 33.442304,37.785116 c -0.142894,-0.124015 -0.184487,-0.418012 -0.08626,-0.609677 0.107931,-0.21059 0.332418,-0.35794 0.552369,-0.362566 0.162873,-0.0035 0.203504,0.01372 0.289511,0.12216 0.111498,0.140582 0.134897,0.403337 0.05222,0.586418 -0.05614,0.124327 -0.445298,0.359662 -0.594746,0.359662 -0.05638,0 -0.152266,-0.0432 -0.2131,-0.096 z"
       id="path1921" /><path
       style="fill:#ff6600;fill-opacity:1;stroke-width:0.0124474"
       d="m 29.321348,37.851502 c -0.247417,-0.142898 -0.32212,-0.256547 -0.32212,-0.490054 0,-0.483507 0.458632,-0.619871 0.808508,-0.240394 0.15451,0.167583 0.201821,0.368273 0.13537,0.574236 -0.09327,0.289074 -0.301245,0.341326 -0.621758,0.156212 z"
       id="path3027" /></g><g
     inkscape:groupmode="layer"
     id="layer7"
     inkscape:label="Legs"
     transform="translate(-9.4984546,-0.43795068)"><path
       style="fill:#000000;fill-opacity:1;stroke-width:0.00488209"
       d="m 35.795011,61.676343 c 0,-0.004 0.02748,-0.09632 0.06108,-0.205063 0.222056,-0.718814 0.243461,-1.553488 0.06348,-2.475024 -0.311431,-1.594517 -1.224485,-3.276573 -2.465177,-4.541418 -1.803588,-1.838703 -3.955293,-2.518579 -5.384507,-1.701348 -0.154658,0.08844 -0.408841,0.290376 -0.53617,0.425974 -0.353285,0.376229 -0.59735,0.867456 -0.724208,1.457613 -0.05128,0.23855 -0.05899,0.158475 -0.01058,-0.109802 0.194589,-1.07827 0.753188,-1.837618 1.607854,-2.18568 0.795647,-0.324029 1.821909,-0.242912 2.868873,0.226756 0.222071,0.09962 0.681387,0.35072 0.884813,0.483709 1.496321,0.978219 2.769569,2.555089 3.470374,4.297924 0.257341,0.639986 0.418257,1.243313 0.507131,1.90141 0.03173,0.234959 0.03179,1.129929 9e-5,1.319416 -0.06435,0.384597 -0.161035,0.732521 -0.271341,0.976429 -0.05052,0.111698 -0.0717,0.149842 -0.0717,0.129104 z"
       id="path3692" /><path
       style="fill:#000000;fill-opacity:1;stroke-width:0.00488209"
       d="m 46.801316,61.569643 c 0,-0.004 -0.02748,-0.09632 -0.06108,-0.205063 -0.222056,-0.718814 -0.243461,-1.553488 -0.06348,-2.475024 0.311431,-1.594517 1.224485,-3.276573 2.465177,-4.541418 1.803588,-1.838703 3.955293,-2.518579 5.384507,-1.701348 0.154658,0.08844 0.408841,0.290376 0.53617,0.425974 0.353285,0.376229 0.59735,0.867456 0.724208,1.457613 0.05128,0.23855 0.05899,0.158475 0.01058,-0.109802 -0.194589,-1.07827 -0.753188,-1.837618 -1.607854,-2.18568 -0.795647,-0.324029 -1.821909,-0.242912 -2.868873,0.226756 -0.222071,0.09962 -0.681387,0.35072 -0.884813,0.483709 -1.496321,0.978219 -2.769569,2.555089 -3.470374,4.297924 -0.257341,0.639986 -0.418257,1.243313 -0.507131,1.90141 -0.03173,0.234959 -0.03179,1.129929 -9e-5,1.319416 0.06435,0.384597 0.161035,0.732521 0.271341,0.976429 0.05052,0.111698 0.0717,0.149842 0.0717,0.129104 z"
       id="path3694" /></g></svg>
